<?xml version="1.0" encoding="UTF-8"?>
<svg width="24" height="24" version="1.1" viewBox="0 0 24 24" xmlns="http://www.w3.org/2000/svg">
<metadata>
<rdf:RDF xmlns:rdf="http://www.w3.org/1999/02/22-rdf-syntax-ns#" xmlns:rdfs="http://www.w3.org/2000/01/rdf-schema#" xmlns:dc="http://purl.org/dc/elements/1.1/"><rdf:Description dc:publisher="Papirus Development Team" dc:rights="GPL-3.0-only"></rdf:Description></rdf:RDF>
</metadata>
<path transform="translate(4 4)" d="m9.5 0-4 15.754 1 0.246 4-15.754-1-0.246zm-5.2461 3-3.9746 4.6445-0.2793 0.3555 0.2793 0.3555 3.9746 4.6445 1.7461-0.709-3.6641-4.291 3.6641-4.291-1.7461-0.709zm7.4921 0-1.746 0.709 3.664 4.291-3.664 4.291 1.746 0.709 3.975-4.6445 0.279-0.3555-0.279-0.3555-3.975-4.6445z" fill="#212121"/>
<path d="m2 10.5a1.5002 1.5002 0 1 0 0 3h20a1.5002 1.5002 0 1 0 0-3z" fill="#d00"/>
</svg>
