<?xml version="1.0" encoding="UTF-8"?>
<svg width="24" height="24" version="1.1" viewBox="0 0 24 24" xmlns="http://www.w3.org/2000/svg">
<metadata>
<rdf:RDF xmlns:rdf="http://www.w3.org/1999/02/22-rdf-syntax-ns#" xmlns:rdfs="http://www.w3.org/2000/01/rdf-schema#" xmlns:dc="http://purl.org/dc/elements/1.1/"><rdf:Description dc:publisher="Papirus Development Team" dc:rights="GPL-3.0-only"></rdf:Description></rdf:RDF>
</metadata>
<path transform="translate(4 4)" d="m4.5 3a3.5 5 0 0 0-3.5 5 3.5 5 0 0 0 3.5 5 3.5 5 0 0 0 3.5-5 3.5 5 0 0 0-3.5-5zm3.5 5a3.5 5 0 0 0 3.5 5 3.5 5 0 0 0 3.5-5 3.5 5 0 0 0-3.5-5 3.5 5 0 0 0-3.5 5zm-3 0a2 2 0 0 1 2 2 2 2 0 0 1-2 2 2 2 0 0 1-2-2 2 2 0 0 1 2-2zm7 0a2 2 0 0 1 2 2 2 2 0 0 1-2 2 2 2 0 0 1-2-2 2 2 0 0 1 2-2z" fill="#212121"/>
</svg>
