<?xml version="1.0" encoding="UTF-8"?>
<svg width="24" height="24" version="1.1" viewBox="0 0 24 24" xmlns="http://www.w3.org/2000/svg">
<metadata>
<rdf:RDF xmlns:rdf="http://www.w3.org/1999/02/22-rdf-syntax-ns#" xmlns:rdfs="http://www.w3.org/2000/01/rdf-schema#" xmlns:dc="http://purl.org/dc/elements/1.1/"><rdf:Description dc:publisher="Papirus Development Team" dc:rights="GPL-3.0-only"></rdf:Description></rdf:RDF>
</metadata>
<path transform="translate(4 4)" d="m3 1c-1.108-2e-5 -2 0.892-2 2v2.9941l2 0.0058594v-3h10v10h-10v-3l-2-0.0058594v3.0059c0 1.108 0.892 2 2 2h10c1.108 0 2-0.892 2-2v-10c0-1.108-0.892-2-2-2h-10zm4.2109 3-1.3867 1.3867 1.6348 1.6348-7.4609-0.021484v2l7.4609 0.021484-1.6348 1.6328 1.3867 1.3867 4-4.041-4-4z" fill="#212121"/>
</svg>
