<?xml version="1.0" encoding="UTF-8"?>
<svg width="24" height="24" version="1.1" viewBox="0 0 24 24" xmlns="http://www.w3.org/2000/svg">
<metadata>
<rdf:RDF xmlns:rdf="http://www.w3.org/1999/02/22-rdf-syntax-ns#" xmlns:rdfs="http://www.w3.org/2000/01/rdf-schema#" xmlns:dc="http://purl.org/dc/elements/1.1/"><rdf:Description dc:publisher="Papirus Development Team" dc:rights="GPL-3.0-only"></rdf:Description></rdf:RDF>
</metadata>
<path transform="translate(4 4)" d="m2 1s-1 0.0186-1 1v1h2v-2h-1zm3 0v2h2v-2h-2zm4 0v2h2v-2h-2zm4 0v2h2v-1c0-0.98141-1-1-1-1h-1zm-12 4v2h2v-2h-2zm4 0v6h6v-6h-6zm8 0v2h2v-2h-2zm-12 4v2h2v-2h-2zm12 0v2h2v-2h-2zm-12 4v1c0 0.98141 1 1 1 1h1v-2h-2zm4 0v2h2v-2h-2zm4 0v2h2v-2h-2zm4 0v2h1s1-0.0186 1-1v-1h-2z" fill="#212121"/>
</svg>
