<?xml version="1.0" encoding="UTF-8"?>
<svg width="24" height="24" version="1.1" viewBox="0 0 24 24" xmlns="http://www.w3.org/2000/svg">
<metadata>
<rdf:RDF xmlns:rdf="http://www.w3.org/1999/02/22-rdf-syntax-ns#" xmlns:rdfs="http://www.w3.org/2000/01/rdf-schema#" xmlns:dc="http://purl.org/dc/elements/1.1/"><rdf:Description dc:creator="Nico Dorn" dc:publisher="Akademie der Wissenschaften zu Göttingen, „Wortgeschichte digital“ („Zentrum für digitale Lexikographie der deutschen Sprache“)" dc:rights="GPL-3.0-only"></rdf:Description></rdf:RDF>
</metadata>
<path d="m12 4.0039c-1.1046 0-2 0.89543-2 2h-3c-1 0-1 1-1 1v3.9961h2v-2.9961h1v1h1.9961l-1.3828 1.3828 1.6348 1.6348-7.4609-0.021484v2l7.4609 0.021484-1.6348 1.6328 1.3496 1.3496h-2.9629v-2.0039h-2v3.0039c0 1 1 1 1 1h10s1 0 1-1v-11c0-1-1-1-1-1h-3c0-0.13807-0.00505-0.27605-0.03125-0.40625-0.18649-0.91137-1.0022-1.5937-1.9688-1.5938zm0 1c0.41421 0 0.75444 0.26608 0.90625 0.625 0.0506 0.11964 0.09375 0.23693 0.09375 0.375 0 0.55228-0.44771 1-1 1-0.55229 0-1-0.44772-1-1s0.44771-1 1-1zm3 3h1v9h-4.9629l3.9629-4.0039-3.9961-3.9961h3.9961v-1z" fill="#212121"/>
</svg>
