<?xml version="1.0" encoding="UTF-8"?>
<svg width="24" height="24" version="1.1" viewBox="0 0 24 24" xmlns="http://www.w3.org/2000/svg">
<metadata>
<rdf:RDF xmlns:rdf="http://www.w3.org/1999/02/22-rdf-syntax-ns#" xmlns:rdfs="http://www.w3.org/2000/01/rdf-schema#" xmlns:dc="http://purl.org/dc/elements/1.1/"><rdf:Description dc:publisher="Papirus Development Team" dc:rights="GPL-3.0-only"></rdf:Description></rdf:RDF>
</metadata>
<path d="m16.501 5.9955a1.4993 1.4993 0 0 0-1.06 0.43925l-3.4378 3.4378-3.4232-3.4232a1.4993 1.4993 0 0 0-0.014642-0.014642 1.4993 1.4993 0 0 0-1.0513-0.43339l-0.014641 0.020498a1.4993 1.4993 0 0 0-1.4993 1.4993 1.4993 1.4993 0 0 0 0.43925 1.06l3.4378 3.4378-3.4378 3.4378a1.4993 1.4993 0 0 0-0.43339 1.0483 1.4993 1.4993 0 0 0 1.4993 1.4993 1.4993 1.4993 0 0 0 1.06-0.43925l3.4378-3.4378 3.4232 3.4232a1.4993 1.4993 0 0 0 1.0747 0.45389 1.4993 1.4993 0 0 0 1.4993-1.4993 1.4993 1.4993 0 0 0-0.43925-1.06l-3.4496-3.4466 3.4232-3.4232a1.4993 1.4993 0 0 0 0.4656-1.0805 1.4993 1.4993 0 0 0-1.4993-1.4993z" color="#444444" fill="#fff" stroke-width="1.4993"/>
</svg>
