<?xml version="1.0" encoding="UTF-8"?>
<svg width="24" height="24" version="1" xmlns="http://www.w3.org/2000/svg">
<metadata>
<rdf:RDF xmlns:rdf="http://www.w3.org/1999/02/22-rdf-syntax-ns#" xmlns:rdfs="http://www.w3.org/2000/01/rdf-schema#" xmlns:dc="http://purl.org/dc/elements/1.1/"><rdf:Description dc:publisher="Papirus Development Team" dc:rights="GNU General Public License v3.0"></rdf:Description></rdf:RDF>
</metadata>
<path d="m22 21.5v-18c0-0.554-0.446-1-1-1h-18c-0.554 0-1 0.446-1 1v18c0 0.554 0.446 1 1 1h18c0.554 0 1-0.446 1-1z" opacity=".2"/>
<path d="m22 21v-18c0-0.554-0.446-1-1-1h-18c-0.554 0-1 0.446-1 1v18c0 0.554 0.446 1 1 1h18c0.554 0 1-0.446 1-1z" fill="#8bc34a"/>
<g transform="translate(-12.12,-266)" enable-background="new">
<path d="m22.12 268v4c0 1.1 0.895 2 2 2s2-0.9 2-2v-4z" opacity=".1"/>
<path d="m24.12 268v1h1v-1zm0 1h-1v1h1zm0 1v1h1v-1zm0 1h-1v1h1zm0 1v1c0.552 0 1-0.5 1-1z" opacity=".2"/>
<path d="m23.12 268v1h1v-1zm0 2v1h1v-1zm0 2c0 0.5 0.448 1 1 1v-1z" fill="#ddd"/>
<path d="m24.12 274c-1.105 0-2 0.9-2 2v4c0 1.1 0.895 2 2 2s2-0.9 2-2v-4c0-1.1-0.895-2-2-2zm0 1c0.552 0 1 0.4 1 1 0 0.5-0.448 1-1 1s-1-0.5-1-1c0-0.6 0.448-1 1-1zm0 3c0.552 0 1 0.4 1 1v1c0 0.5-0.448 1-1 1s-1-0.5-1-1v-1c0-0.6 0.448-1 1-1z" opacity=".2"/>
<path d="m24.12 269h1v1h-1zm0 2h1v1h-1z" fill="#b3b3b3"/>
<path d="m24.12 273c-1.105 0-2 0.9-2 2v4c0 1.1 0.895 2 2 2s2-0.9 2-2v-4c0-1.1-0.895-2-2-2zm0 1c0.552 0 1 0.4 1 1 0 0.5-0.448 1-1 1s-1-0.5-1-1c0-0.6 0.448-1 1-1zm0 3c0.552 0 1 0.4 1 1v1c0 0.5-0.448 1-1 1s-1-0.5-1-1v-1c0-0.6 0.448-1 1-1z" fill="#f5f5f5"/>
</g>
<path d="m3 2c-0.554 0-1 0.446-1 1v0.5c0-0.554 0.446-1 1-1h18c0.554 0 1 0.446 1 1v-0.5c0-0.554-0.446-1-1-1h-18z" fill="#fff" opacity=".2"/>
</svg>
