<?xml version="1.0" encoding="UTF-8"?>
<svg width="24" height="24" version="1" xmlns="http://www.w3.org/2000/svg">
<metadata>
<rdf:RDF xmlns:rdf="http://www.w3.org/1999/02/22-rdf-syntax-ns#" xmlns:rdfs="http://www.w3.org/2000/01/rdf-schema#" xmlns:dc="http://purl.org/dc/elements/1.1/"><rdf:Description dc:publisher="Papirus Development Team" dc:rights="GPL-3.0-only"></rdf:Description></rdf:RDF>
</metadata>
<path d="m5 2.5c-0.554 0-1 0.446-1 1v18c0 0.554 0.446 1 1 1h14c0.554 0 1-0.446 1-1v-13l-5.5-0.5-0.5-5.5z" opacity=".2"/>
<path d="m5 2c-0.554 0-1 0.446-1 1v18c0 0.554 0.446 1 1 1h14c0.554 0 1-0.446 1-1v-13l-5.5-0.5-0.5-5.5z" fill="#2095f2"/>
<path d="m5 2c-0.554 0-1 0.446-1 1v0.5c0-0.554 0.446-1 1-1h9l5.5 5.5h0.5l-6-6z" fill="#fff" opacity=".2"/>
<path d="m14 2.5v5c0 0.5523 0.44772 1 1 1h5z" opacity=".2"/>
<path d="m14 2v5c0 0.5523 0.44772 1 1 1h5l-6-6z" fill="#7cc0f5"/>
<path d="m12 10.5c-2.7614 0-5 2.2386-5 5s2.2386 5 5 5c2.7614 0 5-2.2386 5-5s-2.2386-5-5-5zm-0.46777 0.99707c0.0544-0.0057 0.12284 0.0032 0.17774 0 0.0065 0.02602-0.03854 0.11938-0.10059 0.25488-0.39511 0.86314-0.41845 1.8738-0.05176 2.4141 0.06636 0.09796 0.12695 0.19101 0.12695 0.20312 0 0.01212-0.07143 0.02539-0.15234 0.02539-0.18995 1e-6 -0.37003-0.11542-0.7373-0.40625-0.16316-0.1292-0.37486-0.23748-0.45703-0.25391-0.12904-0.02578-0.16314-0.01461-0.33008 0.15234-0.15532 0.15529-0.20312 0.23967-0.20312 0.38184 0 0.53911 0.64041 0.96657 1.8301 1.2188 1.6156 0.34242 2.0131 0.64948 2.0576 1.499 0.05595 1.0653-0.51066 1.8684-1.7529 2.4902-0.14827 0.07425-0.24248 0.10394-0.30469 0.12793-0.02757-0.0024-0.04967 0.0024-0.07715 0-0.01057-0.03293-0.02539-0.10912-0.02539-0.25391 0-0.56582-0.22253-1.1489-0.55859-1.4746-0.09021-0.08744-0.3423-0.27236-0.55859-0.40625-0.21629-0.13389-0.43477-0.28911-0.4834-0.35547-0.08057-0.11012-0.086333-0.17743-0.024415-0.38086 0.11284-0.37153 0.24671-0.5797 0.50781-0.81445 0.13689-0.12307 0.27436-0.22509 0.30469-0.22754 0.03033-0.0024-0.17454-0.06495-0.48242-0.12793-0.30787-0.06311-0.75934-0.19502-0.99219-0.2793-0.42578-0.15406-1.0006-0.47784-1.2197-0.71191-0.00926-0.0099-0.01734-0.0166-0.02539-0.02539 0.31401-1.2508 1.1951-2.2755 2.3633-2.7695 0.24443-0.10338 0.49671-0.17411 0.7627-0.22852 0.13249-0.02708 0.26945-0.03785 0.40625-0.05176zm3.8125 1.9062c0.09551 0.05904 0.45662 0.84012 0.55957 1.2207 0.13291 0.49134 0.12329 1.341 0 1.8291-0.04693 0.18577-0.10792 0.35923-0.12793 0.38086-0.02 0.02163-0.09337-0.1017-0.17871-0.25293-0.08535-0.15121-0.35645-0.47287-0.58301-0.71191-0.65394-0.69004-0.75732-1.0499-0.4834-1.6006 0.13814-0.2777 0.73956-0.91085 0.81348-0.86523z" opacity=".2"/>
<path d="m12 10c-2.7614 0-5 2.2386-5 5s2.2386 5 5 5c2.7614 0 5-2.2386 5-5s-2.2386-5-5-5zm-0.46777 0.99707c0.0544-0.0057 0.12284 0.0032 0.17774 0 0.0065 0.02602-0.03854 0.11938-0.10059 0.25488-0.39511 0.86314-0.41845 1.8738-0.05176 2.4141 0.06636 0.09796 0.12695 0.19101 0.12695 0.20312 0 0.01212-0.07143 0.02539-0.15234 0.02539-0.18995 1e-6 -0.37003-0.11542-0.7373-0.40625-0.16316-0.1292-0.37486-0.23748-0.45703-0.25391-0.12904-0.02578-0.16314-0.01461-0.33008 0.15234-0.15532 0.15529-0.20312 0.23967-0.20312 0.38184 0 0.53911 0.64041 0.96657 1.8301 1.2188 1.6156 0.34242 2.0131 0.64948 2.0576 1.499 0.05595 1.0653-0.51066 1.8684-1.7529 2.4902-0.14827 0.07425-0.24248 0.10394-0.30469 0.12793-0.02757-0.0024-0.04967 0.0024-0.07715 0-0.01057-0.03293-0.02539-0.10912-0.02539-0.25391 0-0.56582-0.22253-1.1489-0.55859-1.4746-0.09021-0.08744-0.3423-0.27236-0.55859-0.40625-0.21629-0.13389-0.43477-0.28911-0.4834-0.35547-0.08057-0.11012-0.086333-0.17743-0.024415-0.38086 0.11284-0.37153 0.24671-0.5797 0.50781-0.81445 0.13689-0.12307 0.27436-0.22509 0.30469-0.22754 0.03033-0.0024-0.17454-0.06495-0.48242-0.12793-0.30787-0.06311-0.75934-0.19502-0.99219-0.2793-0.42578-0.15406-1.0006-0.47784-1.2197-0.71191-0.00926-0.0099-0.01734-0.0166-0.02539-0.02539 0.31401-1.2508 1.1951-2.2755 2.3633-2.7695 0.24443-0.10338 0.49671-0.17411 0.7627-0.22852 0.13249-0.02708 0.26945-0.03785 0.40625-0.05176zm3.8125 1.9062c0.09551 0.05904 0.45662 0.84012 0.55957 1.2207 0.13291 0.49134 0.12329 1.341 0 1.8291-0.04693 0.18577-0.10792 0.35923-0.12793 0.38086-0.02 0.02163-0.09337-0.1017-0.17871-0.25293-0.08535-0.15121-0.35645-0.47287-0.58301-0.71191-0.65394-0.69004-0.75732-1.0499-0.4834-1.6006 0.13814-0.2777 0.73956-0.91085 0.81348-0.86523z" fill="#fff"/>
</svg>
