<?xml version="1.0" encoding="UTF-8"?>
<svg width="24" height="24" version="1" xmlns="http://www.w3.org/2000/svg">
<metadata>
<rdf:RDF xmlns:rdf="http://www.w3.org/1999/02/22-rdf-syntax-ns#" xmlns:rdfs="http://www.w3.org/2000/01/rdf-schema#" xmlns:dc="http://purl.org/dc/elements/1.1/"><rdf:Description dc:publisher="Papirus Development Team" dc:rights="GNU General Public License v3.0"></rdf:Description></rdf:RDF>
</metadata>
<path d="m5 2.5c-0.554 0-1 0.446-1 1v18c0 0.554 0.446 1 1 1h14c0.554 0 1-0.446 1-1v-13l-5.5-0.5-0.5-5.5z" opacity=".2"/>
<path d="m5 2c-0.554 0-1 0.446-1 1v18c0 0.554 0.446 1 1 1h14c0.554 0 1-0.446 1-1v-13l-5.5-0.5-0.5-5.5z" fill="#ff5722"/>
<path d="m5 2c-0.554 0-1 0.446-1 1v0.5c0-0.554 0.446-1 1-1h9l5.5 5.5h0.5l-6-6z" fill="#fff" opacity=".1"/>
<path d="m14 2.5v5c0 0.5523 0.44772 1 1 1h5z" opacity=".2"/>
<path d="m14 2v5c0 0.5523 0.44772 1 1 1h5l-6-6z" fill="#ff8660"/>
<path d="m9 12.5c-1.1062 0-2 0.894-2 2s0.8938 2 2 2c1.106 0 2-0.894 2-2h-2zm3 1v1h4v-1zm0 2v1h4v-1zm-4 2v1h6v-1z" opacity=".2"/>
<path d="m9 12c-1.1062 0-2 0.894-2 2s0.8938 2 2 2c1.106 0 2-0.894 2-2h-2v-2zm3 1v1h4v-1h-4zm0 2v1h4v-1h-4zm-4 2v1h6v-1h-6z" fill="#fff"/>
</svg>
