<?xml version="1.0" encoding="UTF-8"?>
<svg width="24" height="24" version="1" xmlns="http://www.w3.org/2000/svg">
<metadata>
<rdf:RDF xmlns:rdf="http://www.w3.org/1999/02/22-rdf-syntax-ns#" xmlns:rdfs="http://www.w3.org/2000/01/rdf-schema#" xmlns:dc="http://purl.org/dc/elements/1.1/"><rdf:Description dc:publisher="Papirus Development Team" dc:rights="GNU General Public License v3.0"></rdf:Description></rdf:RDF>
</metadata>
<path d="m5 2.5c-0.554 0-1 0.446-1 1v18c0 0.554 0.446 1 1 1h14c0.554 0 1-0.446 1-1v-13l-5.5-0.5-0.5-5.5z" opacity=".2"/>
<path d="m5 2c-0.554 0-1 0.446-1 1v18c0 0.554 0.446 1 1 1h14c0.554 0 1-0.446 1-1v-13l-5.5-0.5-0.5-5.5z" fill="#e4e4e4"/>
<path d="m5 2c-0.554 0-1 0.446-1 1v0.5c0-0.554 0.446-1 1-1h9l5.5 5.5h0.5l-6-6z" fill="#fff" opacity=".2"/>
<path d="m14 2.5v5c0 0.5523 0.44772 1 1 1h5z" opacity=".2"/>
<path d="m14 2v5c0 0.5523 0.44772 1 1 1h5z" fill="#fafafa"/>
<g transform="scale(1.0008 .99919)" fill="#72a0cf" aria-label="Z">
<path d="m14.441 16.029c0.06509 0.11391 0.14646 0.2441 0.21156 0.34174 0.26037 0.45566 0.32547 0.65094 0.32547 1.0252 0 0.86249-0.50448 1.2856-1.5785 1.2856-0.61839 0-1.2693-0.03255-2.3271-0.13019-1.367-0.13019-1.6924-0.14646-2.1806-0.14646h-0.58584l-0.52075 0.08137 1.3181-1.367 2.3434-2.3922 4.1985-4.2474v-0.47193c-0.56957 0.4882-1.0252 0.66721-1.6273 0.66721-0.22783 0-0.68348-0.03255-1.3019-0.09764-1.5785-0.14646-1.5785-0.14646-2.0016-0.19528-0.81367-0.08137-0.81367-0.08137-0.94386-0.08137-0.35801 0-0.45566 0.08137-0.71603 0.61839l-1.074 2.3434 0.27665 0.40684c1.1391-2.0016 1.2205-2.1155 1.725-2.1155 0.11391 0 0.27665 0.01627 0.43938 0.03255 0.65094 0.08137 1.0903 0.11391 1.6599 0.11391 0.76485 0 1.0903-0.03255 1.8877-0.16273l-5.5167 5.5167c-1.2531 1.2205-2.0667 2.0179-2.4573 2.3596v0.60212c0.53702-0.39056 0.91131-0.52075 1.5134-0.52075 0.42311 0 0.99268 0.03255 1.6111 0.09764 1.9854 0.21155 3.5639 0.34174 3.9544 0.34174 0.45566 0 0.84622-0.14646 1.1554-0.43938 0.19528-0.19528 0.34174-0.35802 0.7974-0.94386l0.37429-0.47193c0.4882-0.58584 0.58584-0.82994 0.58584-1.3832 0-0.45566-0.08137-0.82994-0.32547-1.3995z" stroke-width="1.0171"/>
</g>
</svg>
