<?xml version="1.0" encoding="UTF-8"?>
<svg width="24" height="24" version="1" xmlns="http://www.w3.org/2000/svg">
<metadata>
<rdf:RDF xmlns:rdf="http://www.w3.org/1999/02/22-rdf-syntax-ns#" xmlns:rdfs="http://www.w3.org/2000/01/rdf-schema#" xmlns:dc="http://purl.org/dc/elements/1.1/"><rdf:Description dc:publisher="Papirus Development Team" dc:rights="GPL-3.0-only"></rdf:Description></rdf:RDF>
</metadata>
<path d="m5 2.5c-0.554 0-1 0.446-1 1v18c0 0.554 0.446 1 1 1h14c0.554 0 1-0.446 1-1v-13l-5.5-0.5-0.5-5.5z" opacity=".2"/>
<path d="m5 2c-0.554 0-1 0.446-1 1v18c0 0.554 0.446 1 1 1h14c0.554 0 1-0.446 1-1v-13l-5.5-0.5-0.5-5.5z" fill="#e4e4e4"/>
<path d="m5 2c-0.554 0-1 0.446-1 1v0.5c0-0.554 0.446-1 1-1h9l5.5 5.5h0.5l-6-6z" fill="#fff" opacity=".2"/>
<path d="m14 2.5v5c0 0.5523 0.44772 1 1 1h5z" opacity=".2"/>
<path d="m14 2v5c0 0.5523 0.44772 1 1 1h5l-6-6z" fill="#f8f8f0"/>
<g transform="matrix(.5 0 0 .5 4.2627 -502.96)">
<g transform="translate(-.01281 .0213)">
<path d="m8.4863 1027.9a1.0001 1.0001 0 0 0-0.69531 1.7168l6.293 6.293-6.293 6.293a1.0001 1.0001 0 1 0 1.4141 1.414l6.293-6.2929 6.293 6.2929a1.0001 1.0001 0 1 0 1.4141-1.414l-6.293-6.293 6.293-6.293a1.0001 1.0001 0 1 0-1.4141-1.414l-6.293 6.2929-6.293-6.2929a1.0001 1.0001 0 0 0-0.71875-0.3028z" fill="#d00"/>
</g>
</g>
</svg>
