<?xml version="1.0" encoding="UTF-8"?>
<svg width="24" height="24" version="1" xmlns="http://www.w3.org/2000/svg">
<metadata>
<rdf:RDF xmlns:rdf="http://www.w3.org/1999/02/22-rdf-syntax-ns#" xmlns:rdfs="http://www.w3.org/2000/01/rdf-schema#" xmlns:dc="http://purl.org/dc/elements/1.1/"><rdf:Description dc:publisher="Papirus Development Team" dc:rights="GPL-3.0-only"></rdf:Description></rdf:RDF>
</metadata>
<path d="m5 2.5c-0.554 0-1 0.446-1 1v18c0 0.554 0.446 1 1 1h14c0.554 0 1-0.446 1-1v-13l-5.5-0.5-0.5-5.5z" opacity=".2"/>
<path d="m5 2c-0.554 0-1 0.446-1 1v18c0 0.554 0.446 1 1 1h14c0.554 0 1-0.446 1-1v-13l-5.5-0.5-0.5-5.5z" fill="#8bc34a"/>
<path d="m9 2v7c0 1.1 0.895 2 2 2s2-0.9 2-2v-7z" opacity=".1"/>
<path d="m10 2v1h1v-1h-1zm1 1v1h1v-1h-1zm0 1h-1v1h1v-1zm0 1 0.007812 1.002 0.99219-0.0019531v-1h-1zm-1 1v1h1v-1h-1zm1 1v1h1v-1h-1zm0 1h-1v1h1v-1zm0 1v1c0.552 0 1-0.5 1-1h-1z" opacity=".2"/>
<path d="m10 5v1h1v-1zm0 2v1h1v-1zm0 2c0 0.5 0.448 1 1 1v-1z" fill="#ddd"/>
<path d="m11 10.5c-1.105 0-2 0.9-2 2v4c0 1.1 0.895 2 2 2s2-0.9 2-2v-4c0-1.1-0.895-2-2-2zm0 1c0.552 0 1 0.4 1 1 0 0.5-0.448 1-1 1s-1-0.5-1-1c0-0.6 0.448-1 1-1zm0 3c0.552 0 1 0.4 1 1v1c0 0.5-0.448 1-1 1s-1-0.5-1-1v-1c0-0.6 0.448-1 1-1z" opacity=".2"/>
<path d="m11 6h1v1h-1zm0 2h1v1h-1z" fill="#b3b3b3"/>
<path d="m11 10c-1.105 0-2 0.9-2 2v4c0 1.1 0.895 2 2 2s2-0.9 2-2v-4c0-1.1-0.895-2-2-2zm0 1c0.552 0 1 0.4 1 1 0 0.5-0.448 1-1 1s-1-0.5-1-1c0-0.6 0.448-1 1-1zm0 3c0.552 0 1 0.4 1 1v1c0 0.5-0.448 1-1 1s-1-0.5-1-1v-1c0-0.6 0.448-1 1-1z" fill="#f5f5f5"/>
<path d="m5 2c-0.554 0-1 0.446-1 1v0.5c0-0.554 0.446-1 1-1h9l5.5 5.5h0.5l-6-6z" fill="#fff" opacity=".2"/>
<path d="m14 2.5v5c0 0.5523 0.44772 1 1 1h5z" opacity=".2"/>
<path d="m14 2v5c0 0.5523 0.44772 1 1 1h5l-6-6z" fill="#c5e1a5"/>
<path d="m10 3v1h1v-1z" fill="#ddd"/>
<path d="m11 2h1v1h-1zm0 2h1v1h-1z" fill="#b3b3b3"/>
</svg>
