<?xml version="1.0" encoding="UTF-8"?>
<svg width="24" height="24" version="1" xmlns="http://www.w3.org/2000/svg">
<metadata>
<rdf:RDF xmlns:rdf="http://www.w3.org/1999/02/22-rdf-syntax-ns#" xmlns:rdfs="http://www.w3.org/2000/01/rdf-schema#" xmlns:dc="http://purl.org/dc/elements/1.1/"><rdf:Description dc:publisher="Papirus Development Team" dc:rights="GPL-3.0-only"></rdf:Description></rdf:RDF>
</metadata>
<path d="m5 2.5c-0.554 0-1 0.446-1 1v18c0 0.554 0.446 1 1 1h14c0.554 0 1-0.446 1-1v-13l-5.5-0.5-0.5-5.5z" opacity=".2"/>
<path d="m5 2c-0.554 0-1 0.446-1 1v18c0 0.554 0.446 1 1 1h14c0.554 0 1-0.446 1-1v-13l-5.5-0.5-0.5-5.5z" fill="#4f4f4f"/>
<path d="m5 2c-0.554 0-1 0.446-1 1v0.5c0-0.554 0.446-1 1-1h9l5.5 5.5h0.5l-6-6z" fill="#fff" opacity=".1"/>
<path d="m14 2.5v5c0 0.5523 0.44772 1 1 1h5z" opacity=".2"/>
<path d="m14 2v5c0 0.5523 0.44772 1 1 1h5z" fill="#696969"/>
<path d="m9.5 11.5c-0.8 0-1.5 0.7-1.5 1.5s0.7 1.5 1.5 1.5c0.80001 0 1.5-0.70001 1.5-1.5 0-0.80001-0.70001-1.5-1.5-1.5zm5 0c-0.80001 0-1.5 0.70001-1.5 1.5 0 0.80001 0.70001 1.5 1.5 1.5 0.80001 0 1.5-0.70001 1.5-1.5 0-0.80001-0.70001-1.5-1.5-1.5zm-7 4c-0.80001 0-1.5 0.70001-1.5 1.5 0 0.80001 0.70001 1.5 1.5 1.5 0.80001 0 1.5-0.70001 1.5-1.5 0-0.80001-0.70001-1.5-1.5-1.5zm9 0c-0.8 0-1.5 0.7-1.5 1.5 0 0.7998 0.7 1.5 1.5 1.5 0.80001 0 1.5-0.70001 1.5-1.5 0-0.80001-0.70001-1.5-1.5-1.5z" opacity=".2"/>
<path d="M 7.5,18 C 6.70001,18 6,17.30001 6,16.5 6,15.70001 6.69999,15 7.5,15 8.29999,15 9,15.69999 9,16.5 9,17.29999 8.30001,18 7.5,18 Z" fill="#f1a443"/>
<path d="m9.5 14c-0.8 0-1.5-0.7-1.5-1.5s0.7-1.4999 1.5-1.4999c0.79999 0 1.5 0.69999 1.5 1.5 0 0.79999-0.69999 1.5-1.5 1.5z" fill="#3f90dc"/>
<path d="m14.5 14c-0.79999 0-1.5-0.69999-1.5-1.5 0-0.79999 0.69999-1.5 1.5-1.5 0.79999 0 1.5 0.69999 1.5 1.5 0 0.79999-0.69999 1.5-1.5 1.5z" fill="#56a913"/>
<path d="m16.5 18c-0.8 0-1.5-0.7-1.5-1.4998 0-0.8 0.7-1.4999 1.5-1.4999 0.79999 0 1.5 0.69999 1.5 1.5 0 0.79999-0.69999 1.5-1.5 1.5z" fill="#f35b5b"/>
</svg>
