<?xml version="1.0" encoding="UTF-8"?>
<svg width="24" height="24" version="1.1" viewBox="0 0 24 24" xmlns="http://www.w3.org/2000/svg">
<metadata>
<rdf:RDF xmlns:rdf="http://www.w3.org/1999/02/22-rdf-syntax-ns#" xmlns:rdfs="http://www.w3.org/2000/01/rdf-schema#" xmlns:dc="http://purl.org/dc/elements/1.1/"><rdf:Description dc:creator="Nico Dorn" dc:publisher="Zentrum für digitale Lexikographie der deutschen Sprache" dc:rights="GNU General Public License v3.0"></rdf:Description></rdf:RDF>
</metadata>
<path d="m12 5a7 7 0 0 0-7 7 7 7 0 0 0 7 7 7 7 0 0 0 7-7 7 7 0 0 0-7-7zm0 2.1c1.547 0 2.8 1.253 2.8 2.8 0 0.616-0.25178 1.176-0.65078 1.575l-0.63027 0.64394c-0.504 0.511-0.81894 0.93106-0.81894 1.9811h-1.4v-0.35c0-0.77 0.31494-1.4701 0.81894-1.9811l0.86816-0.88184c0.259-0.252 0.41289-0.60211 0.41289-0.98711 0-0.77-0.63-1.4-1.4-1.4s-1.4 0.63-1.4 1.4h-1.4c0-1.547 1.253-2.8 2.8-2.8zm-0.7 8.4h1.4v1.4h-1.4z" fill="#212121"/>
</svg>
