<?xml version="1.0" encoding="UTF-8" standalone="no"?>
<svg
   xmlns:dc="http://purl.org/dc/elements/1.1/"
   xmlns:cc="http://creativecommons.org/ns#"
   xmlns:rdf="http://www.w3.org/1999/02/22-rdf-syntax-ns#"
   xmlns:svg="http://www.w3.org/2000/svg"
   xmlns="http://www.w3.org/2000/svg"
   xmlns:sodipodi="http://sodipodi.sourceforge.net/DTD/sodipodi-0.dtd"
   xmlns:inkscape="http://www.inkscape.org/namespaces/inkscape"
   width="24"
   height="24"
   viewBox="0 0 24 24"
   version="1.1"
   id="svg7"
   sodipodi:docname="dialog-prompt.svg"
   inkscape:version="0.92.3 (2405546, 2018-03-11)">
  <metadata
     id="metadata11">
    <rdf:RDF>
      <cc:Work
         rdf:about="">
        <dc:format>image/svg+xml</dc:format>
        <dc:type
           rdf:resource="http://purl.org/dc/dcmitype/StillImage" />
        <dc:title></dc:title>
      </cc:Work>
    </rdf:RDF>
  </metadata>
  <sodipodi:namedview
     pagecolor="#ffffff"
     bordercolor="#666666"
     borderopacity="1"
     objecttolerance="10"
     gridtolerance="10"
     guidetolerance="10"
     inkscape:pageopacity="0"
     inkscape:pageshadow="2"
     inkscape:window-width="1600"
     inkscape:window-height="849"
     id="namedview9"
     showgrid="true"
     inkscape:zoom="27.166667"
     inkscape:cx="12"
     inkscape:cy="12"
     inkscape:window-x="0"
     inkscape:window-y="24"
     inkscape:window-maximized="1"
     inkscape:current-layer="svg7">
    <inkscape:grid
       type="xygrid"
       id="grid818" />
  </sodipodi:namedview>
  <defs
     id="defs3">
    <style
       id="current-color-scheme"
       type="text/css">
   .ColorScheme-Text { color:#444444; } .ColorScheme-Highlight { color:#5294e2; }
  </style>
  </defs>
  <path
     style="fill:#212121;fill-opacity:1"
     class="ColorScheme-Text"
     d="M 8 1.0039062 C 4.134 1.0039062 1 4.1380063 1 8.0039062 C 1 11.869906 4.134 15.003906 8 15.003906 C 11.866 15.003906 15 11.869906 15 8.0039062 C 15 4.1380063 11.866 1.0039062 8 1.0039062 z M 8 3.7539062 C 8.69036 3.7539062 9.25 4.3135463 9.25 5.0039062 C 9.25 5.6942662 8.69036 6.2539062 8 6.2539062 C 7.30964 6.2539062 6.75 5.6942662 6.75 5.0039062 C 6.75 4.3135463 7.30964 3.7539062 8 3.7539062 z M 7 7.0039062 L 9 7.0039062 L 9 12.003906 L 7 12.003906 L 7 7.0039062 z"
     transform="translate(4 4)"
     id="path5" />
</svg>
