<?xml version="1.0" encoding="UTF-8"?>
<svg width="24" height="24" version="1.1" viewBox="0 0 24 24" xmlns="http://www.w3.org/2000/svg">
<metadata>
<rdf:RDF xmlns:rdf="http://www.w3.org/1999/02/22-rdf-syntax-ns#" xmlns:rdfs="http://www.w3.org/2000/01/rdf-schema#" xmlns:dc="http://purl.org/dc/elements/1.1/"><rdf:Description dc:publisher="Papirus Development Team" dc:rights="GNU General Public License v3.0"></rdf:Description></rdf:RDF>
</metadata>
<path transform="translate(4 4)" d="m2 2v1 1 4 1 1.627 1 1.373 1h12v-0.99805-0.001953-1.1328l-0.041016-0.039063-2.8281-2.8281-0.003906 0.0039062-0.005859-0.0039062-2.123 2.123-3.123-3.123h-1.4141-1.4609v-4-1-1h-1zm7 0-4.002 4.002h-1.9961v1h2.4102l3.5898-3.5898 2.123 2.123 0.005859-0.0039062 0.003907 0.0039062 2.8281-2.8281c0.002966 0.0050003-0.70703-0.70703-0.70703-0.70703l-2.125 2.125-2.127-2.125-0.0019531 0.0019531-0.0019531-0.0019531zm-6 7h2.4609l3.5352 3.5352 0.0019531-0.001953 0.0019531 0.001953 2.127-2.125 2.125 2.125 0.48242 0.46484h-10.734v-1.373-1-1.627z" fill="#212121" />
</svg>
