<?xml version="1.0" encoding="UTF-8"?>
<svg width="24" height="24" version="1.1" viewBox="0 0 24 24" xmlns="http://www.w3.org/2000/svg">
<metadata>
<rdf:RDF xmlns:rdf="http://www.w3.org/1999/02/22-rdf-syntax-ns#" xmlns:rdfs="http://www.w3.org/2000/01/rdf-schema#" xmlns:dc="http://purl.org/dc/elements/1.1/"><rdf:Description dc:publisher="Papirus Development Team" dc:rights="GPL-3.0-only"></rdf:Description></rdf:RDF>
</metadata>
<path transform="translate(4 4)" d="m8 1c-2.21 0-4 1.79-4 4h2c0-1.1 0.9-2 2-2s2 0.9 2 2c0 0.55-0.21984 1.0502-0.58984 1.4102l-1.2402 1.2598c-0.72 0.73-1.1699 1.7301-1.1699 2.8301v0.5h2c0-1.5 0.44992-2.1001 1.1699-2.8301l0.90039-0.91992c0.57-0.57 0.92969-1.37 0.92969-2.25 0-2.21-1.79-4-4-4zm-1 12v2h2v-2h-2z" fill="#212121"/>
</svg>
