<?xml version="1.0" encoding="UTF-8"?>
<svg width="24" height="24" version="1.1" viewBox="0 0 24 24" xmlns="http://www.w3.org/2000/svg">
<metadata>
<rdf:RDF xmlns:rdf="http://www.w3.org/1999/02/22-rdf-syntax-ns#" xmlns:rdfs="http://www.w3.org/2000/01/rdf-schema#" xmlns:dc="http://purl.org/dc/elements/1.1/"><rdf:Description dc:publisher="Papirus Development Team" dc:rights="GPL-3.0-only"></rdf:Description></rdf:RDF>
</metadata>
<path transform="translate(4 4)" d="m2 1.0039v1h-1v2h1v3h-1v2h1v3h-1v2h1v1h2v-1h3v1h2v-1h3v1h2v-1h1v-2h-1v-3h1v-2h-1v-3h1v-2h-1v-1h-2v1h-3v-1h-2v1h-3v-1h-2zm2 3h3v3h-3v-3zm5 0h3v3h-3v-3zm-5 5h3v3h-3v-3zm5 0h3v3h-3v-3z" fill="#212121"/>
</svg>
