<?xml version="1.0" encoding="UTF-8"?>
<svg width="24" height="24" version="1.1" viewBox="0 0 24 24" xmlns="http://www.w3.org/2000/svg">
<metadata>
<rdf:RDF xmlns:rdf="http://www.w3.org/1999/02/22-rdf-syntax-ns#" xmlns:rdfs="http://www.w3.org/2000/01/rdf-schema#" xmlns:dc="http://purl.org/dc/elements/1.1/"><rdf:Description dc:creator="Nico Dorn" dc:publisher="Akademie der Wissenschaften zu Göttingen, „Wortgeschichte digital“ („Zentrum für digitale Lexikographie der deutschen Sprache“)" dc:rights="GPL-3.0-only"></rdf:Description></rdf:RDF>
</metadata>
<path d="m6 5.0039v1h-1v2h1v3h-1v2h1v3h-1v2h1v1h2v-1h3v1h2v-0.003906h-1v-1-1-1-3-1h7v-0.99609h-1v-3h1v-2h-1v-1h-2v1h-3v-1h-2v1h-3v-1h-2zm2 3h3v3h-3v-3zm5 0h3v3h-3v-3zm0 4.9961v0.003906h2.9922l-0.089844 1.0488a3.1721 3.1424 0 0 0-0.92578 0.53125l-0.9668-0.45117-1.0098 1.7324 0.19531 0.13477h-0.19531v0.003906h0.20117l0.67578 0.46484a3.1721 3.1424 0 0 0-0.048828 0.53125 3.1721 3.1424 0 0 0 0.046875 0.53125l-0.68164 0.46875h-0.19336v0.003906h0.1875l-0.1875 0.12891 1.0098 1.7324 0.96289-0.44922a3.1721 3.1424 0 0 0 0.92969 0.52734l0.08789 1.0566h2.0176l0.089844-1.0527a3.1721 3.1424 0 0 0 0.92578-0.53125l0.9668 0.45117 1.0098-1.7324-0.87695-0.60352a3.1721 3.1424 0 0 0 0.048828-0.53125 3.1721 3.1424 0 0 0-0.046875-0.53125l0.875-0.60156-1.0098-1.7324-0.96289 0.44922a3.1721 3.1424 0 0 0-0.92969-0.52734l-0.08789-1.0527h0.99023v-0.003906h-0.99023-0.009766-2-0.007812-2.9922zm-5 0.003906h3v3h-3v-3zm9.002 2.8535a1.1535 1.1427 0 0 1 1.1523 1.1426 1.1535 1.1427 0 0 1-1.1523 1.1426 1.1535 1.1427 0 0 1-1.1543-1.1426 1.1535 1.1427 0 0 1 1.1543-1.1426z" fill="#212121"/>
</svg>
