<?xml version="1.0" encoding="UTF-8"?>
<svg width="24" height="24" version="1" xmlns="http://www.w3.org/2000/svg">
<metadata>
<rdf:RDF xmlns:rdf="http://www.w3.org/1999/02/22-rdf-syntax-ns#" xmlns:rdfs="http://www.w3.org/2000/01/rdf-schema#" xmlns:dc="http://purl.org/dc/elements/1.1/"><rdf:Description dc:publisher="Papirus Development Team" dc:rights="GPL-3.0-only"></rdf:Description></rdf:RDF>
</metadata>
<path d="m22 12a10 10 0 0 1-10 10 10 10 0 0 1-10-10 10 10 0 0 1 10-10 10 10 0 0 1 10 10z" fill="#fff"/>
<path d="m16.602 6.0195c-0.295-0.013748-1.1279 0.462-2.4316 1.3594-0.73972-0.2208-1.461-0.34184-2.1699-0.33594-0.62871 0.005125-1.5353 0.10986-2.3223 0.33594-1.3034-0.89737-1.9695-1.3713-2.2656-1.3574-0.098745 0.00451-0.14648 0.019531-0.14648 0.019531-0.4955 1.2726-0.18176 2.6255-0.087891 2.8594-0.58212 0.64588-1.1777 1.9712-1.1777 2.9805 0 3.5432 1.4794 4.9365 3.5 5.1699-0.25977 0.23104-0.40168 1.1392-0.48438 1.7363-0.51844 0.2367-1.8972 0.64337-2.709-0.76953 0 0-0.48113-0.88788-1.3945-0.95312 0 0-0.88683-0.01071-0.060547 0.5625 0 0 0.59773 0.08407 1.0117 1.1523 0 0 0.59173 1.6719 3.123 1.1133v1.6387a10 10 0 0 0 3.0137 0.46875 10 10 0 0 0 1.9961-0.21094v-0.98437c0.0023-0.43014 0.0078-1.107 0.0078-2.1484 0-0.86226 0.01962-1.3278-0.30664-1.6133 2.0267-0.22876 4.3027-1.6098 4.3027-5.1621 0-1.0093-0.57701-2.3345-1.1602-2.9805 0.093292-0.23387 0.4068-1.5888-0.089844-2.8613-1e-6 0-0.04785-0.014931-0.14648-0.019531z" fill="#212121"/>
</svg>
