<?xml version="1.0" encoding="UTF-8"?>
<svg width="24" height="24" version="1.1" viewBox="0 0 24 24" xmlns="http://www.w3.org/2000/svg">
<metadata>
<rdf:RDF xmlns:rdf="http://www.w3.org/1999/02/22-rdf-syntax-ns#" xmlns:rdfs="http://www.w3.org/2000/01/rdf-schema#" xmlns:dc="http://purl.org/dc/elements/1.1/"><rdf:Description dc:publisher="Papirus Development Team" dc:rights="GNU General Public License v3.0"></rdf:Description></rdf:RDF>
</metadata>
<path transform="translate(4 4)" d="m6 2c-1.6569 0-3 1.3432-3 3s1.3431 3 3 3 3-1.3432 3-3-1.3431-3-3-3zm4.9961 1.9453 0.003906 0.0039063c-0.38828 0-0.75329 0.089301-1.084 0.23828 0.0546 0.26205 0.083984 0.53309 0.083984 0.81055 0 1.1021-0.45421 2.1042-1.1836 2.8301 0.46 0.7 1.2597 1.1699 2.1797 1.1699 1.4327 0 2.5938-1.1303 2.5938-2.5254 0-1.3951-1.161-2.5273-2.5938-2.5273zm-4.9961 6.0508c-6.0002 0.0034-6 4.0039-6 4.0039v1h12v-1s0-4.01-6-4v-0.0039062zm5 0.0019531v0.0019531c-0.1961 0-0.37171 0.012584-0.55273 0.021484 0.69756 0.39966 1.2291 0.87707 1.6035 1.377 0.94 1.26 0.94922 2.5996 0.94922 2.5996h3v-1s0-3-5-3z" fill="#212121"/>
</svg>
