<?xml version="1.0" encoding="UTF-8"?>
<svg width="48" height="48" version="1.1" viewBox="0 0 12.7 12.7" xmlns="http://www.w3.org/2000/svg">
<metadata>
<rdf:RDF xmlns:rdf="http://www.w3.org/1999/02/22-rdf-syntax-ns#" xmlns:rdfs="http://www.w3.org/2000/01/rdf-schema#" xmlns:dc="http://purl.org/dc/elements/1.1/"><rdf:Description dc:creator="Nico Dorn" dc:publisher="Zentrum für digitale Lexikographie der deutschen Sprache" dc:rights="GNU General Public License v3.0"></rdf:Description></rdf:RDF>
</metadata>
<g transform="translate(0 -284.3)">
<rect x="2.3842e-8" y="284.3" width="12.7" height="12.7" rx="1.0583" ry="1.0583" fill="#fff" fill-rule="evenodd" style="paint-order:normal"/>
<g transform="matrix(1.695 0 0 1.695 -.59459 -204.7)" fill="#72a0cf">
<g aria-label="Z">
<path d="m3.7674 292.54c0.022578 0.0395 0.0508 0.0847 0.073378 0.11853 0.090311 0.15804 0.11289 0.22578 0.11289 0.3556 0 0.29916-0.17498 0.44591-0.54751 0.44591-0.21449 0-0.44027-0.0113-0.80716-0.0452-0.47413-0.0452-0.58702-0.0508-0.75636-0.0508h-0.2032l-0.18062 0.0282 0.4572-0.47414 0.8128-0.82973 1.4563-1.4732v-0.16369c-0.19756 0.16934-0.3556 0.23142-0.56444 0.23142-0.079022 0-0.23707-0.0113-0.45156-0.0339-0.54751-0.0508-0.54751-0.0508-0.69427-0.0677-0.28222-0.0282-0.28222-0.0282-0.32738-0.0282-0.12418 0-0.15804 0.0282-0.24836 0.21449l-0.37253 0.8128 0.095956 0.14111c0.39511-0.69426 0.42333-0.73378 0.59831-0.73378 0.039511 0 0.095956 6e-3 0.1524 0.0113 0.22578 0.0282 0.37818 0.0395 0.57573 0.0395 0.26529 0 0.37818-0.0113 0.65476-0.0564l-1.9135 1.9135c-0.43462 0.42333-0.71684 0.69991-0.85231 0.81844v0.20885c0.18627-0.13547 0.31609-0.18063 0.52493-0.18063 0.14676 0 0.34431 0.0113 0.5588 0.0339 0.68862 0.0734 1.2361 0.11853 1.3716 0.11853 0.15804 0 0.29351-0.0508 0.40076-0.1524 0.067733-0.0677 0.11853-0.12417 0.27658-0.32737l0.12982-0.16369c0.16933-0.2032 0.2032-0.28787 0.2032-0.47978 0-0.15805-0.028222-0.28787-0.11289-0.48542z" fill="#72a0cf" stroke-width=".26458"/>
</g>
<g aria-label="T">
<path d="m4.2067 294.07c1.3603 0 1.445-0.0113 1.9022-0.26529l0.011289-0.0452c-0.24836 0.0339-0.6096 0.0564-0.9144 0.0564-0.045156 0-0.14111-6e-3 -0.25964-0.0113 0.43462-0.36689 0.57573-0.57009 0.67169-0.99907l0.44027-1.7667c0.73942 0.0621 0.74507 0.0621 0.85796 0.0621 0.26529 0 0.3048-0.0508 0.44027-0.6096l-0.073378-0.0847c-0.23142 0.39511-0.25964 0.42333-0.46284 0.42333-0.0508 0-0.18062-6e-3 -0.3556-0.0113-0.82973-0.0395-0.93133-0.0452-1.112-0.0452-0.98778 0-1.7216 0.53622-1.7216 1.2587 0 0.18062 0.039511 0.33867 0.14111 0.53622l0.42333-0.27657c-0.10724-0.27658-0.12982-0.36125-0.12982-0.51929 0-0.31609 0.14676-0.5588 0.42333-0.68863 0.14111-0.0677 0.34996-0.0959 0.64911-0.0959 0.11853 0 0.23142 6e-3 0.51364 0.0282l-0.4572 1.8401c-0.2032 0.82973-0.31044 0.97084-0.79022 0.99342z" fill="#72a0cf" stroke-width=".26458"/>
</g>
</g>
</g>
</svg>
