<?xml version="1.0" encoding="UTF-8"?>
<svg width="48" height="48" version="1.1" viewBox="0 0 48 48" xmlns="http://www.w3.org/2000/svg">
<metadata>
<rdf:RDF xmlns:rdf="http://www.w3.org/1999/02/22-rdf-syntax-ns#" xmlns:rdfs="http://www.w3.org/2000/01/rdf-schema#" xmlns:dc="http://purl.org/dc/elements/1.1/"><rdf:Description dc:creator="Nico Dorn" dc:publisher="Zentrum für digitale Lexikographie der deutschen Sprache" dc:rights="GNU General Public License v3.0"></rdf:Description></rdf:RDF>
</metadata>
<path d="m8 0c-4.432 0-8 3.568-8 8v32c0 4.432 3.568 8 8 8h32c4.432 0 8-3.568 8-8v-32c0-4.432-3.568-8-8-8h-32zm37.111 12.18 0.35742 0.41211c-0.091408 1.2743-0.35933 3.3566-1.7148 4.0703-2.238 0.30072-4.5007-0.21-6.7441-0.30078-0.98937 3.9828-1.9908 7.9627-2.9727 11.947-0.46817 2.6518-2.3402 4.7258-4.3809 6.3457 1.7562 0.12586 3.5186 0.063204 5.2734-0.054688 0.46774 0.16703 3.2663-0.72668 2.1387 0.20703-2.8668 1.8398-6.3922 1.5118-9.6387 1.5977-0.54271-0.23388-3.2677 0.49819-2.2832-0.42188 0.548-0.79993 1.2304-1.266 2.2441-1.1719 1.8939-0.23156 2.7496-2.179 3.1992-3.7969 1.3103-4.8145 2.4327-9.679 3.6602-14.516-0.8245-0.75523-3.2725-0.35363-4.7012-0.43555-2.3556-0.035617-4.9791 1.2036-5.5371 3.6797-0.71467 2.3346 0.65604 4.4559 1.2461 6.6152 0.49631 1.7307-0.004567 3.5888-1.3008 4.832-1.3883 1.5851-2.4746 3.9126-4.832 4.0879-3.0205-0.03782-6.0269-0.44485-9.0332-0.72266-2.2186-0.11044-4.6613-0.76158-6.7246 0.36133-1.0335 1.0565-0.89362 0.06196-0.86719-0.81641 6.2496-5.867 12.204-12.039 18.293-18.07-2.9476 0.57719-5.9703 0.39861-8.9316 0.042969-1.9325-0.12303-2.4556 2.2433-3.3965 3.4902-0.43657 1.0345-0.88298 1.7298-1.4102 0.42383l1.7637-3.8477c0.56026-0.98068 0.75494-2.3531 1.8242-2.8984 1.7922-0.11036 3.5798 0.3182 5.3711 0.4082 2.2475 0.062649 4.5946 0.83063 6.7871 0.05664 0.98532-0.31789 2.1719-1.9312 1.8379-0.10156-5.7488 5.8249-11.53 11.618-17.207 17.514-0.33016 0.38728-1.299 1.1055-0.2168 0.75781 3.0997-0.34149 6.2169 0.27968 9.3145 0.4375 1.9528-0.006498 4.2857 0.60069 5.9004-0.82227 1.2741-1.4952 0.57728-3.6446-0.48438-5.0469-0.95262-1.3942-1.2373-3.5115-0.76758-5.2422 1.011-3.7562 4.9017-5.8617 8.5176-6.3906 3.8144-0.49695 7.6596 0.11107 11.486 0.14648 2.0167 0.56775 3.1681-1.2243 3.9297-2.7773z" fill="#fff" />
</svg>
