<?xml version="1.0" encoding="UTF-8"?>
<svg width="150" height="150" version="1.1" viewBox="0 0 150 150" xmlns="http://www.w3.org/2000/svg">
<metadata>
<rdf:RDF xmlns:rdf="http://www.w3.org/1999/02/22-rdf-syntax-ns#" xmlns:rdfs="http://www.w3.org/2000/01/rdf-schema#" xmlns:dc="http://purl.org/dc/elements/1.1/"><rdf:Description dc:creator="Nico Dorn" dc:publisher="Zentrum für digitale Lexikographie der deutschen Sprache" dc:rights="GNU General Public License v3.0"></rdf:Description></rdf:RDF>
</metadata>
<g transform="translate(0 -23.059)">
<path d="m143.05 39.059c-1.19 2.4266-2.6844 5.0388-4.6692 6.8237-0.99239 0.89247-2.1084 1.5774-3.3691 1.9287-1.2607 0.35136-2.6664 0.37031-4.2419-0.07325-5.9792-0.05531-11.974-0.55976-17.963-0.85449-5.9889-0.29472-11.972-0.37976-17.932 0.39673-2.8249 0.41322-5.7057 1.134-8.4839 2.1667-2.7782 1.0327-5.4562 2.375-7.8796 4.0344-2.4235 1.6594-4.5931 3.6332-6.3538 5.9265-1.7607 2.2934-3.1103 4.9085-3.9001 7.843-0.73394 2.7042-0.88101 5.7128-0.46997 8.5876 0.41104 2.8748 1.3802 5.6158 2.8686 7.7942 1.6588 2.191 3.0298 4.9648 3.4912 7.7759 0.23069 1.4055 0.23678 2.8196-0.06712 4.1748-0.30391 1.3552-0.91504 2.6527-1.9104 3.8208-1.2615 1.1117-2.662 1.8289-4.1504 2.2766-1.4884 0.44776-3.0672 0.62328-4.6753 0.66529-3.2161 0.084-6.5617-0.38247-9.613-0.37232-4.84-0.24659-9.6947-0.85599-14.551-1.2695-4.8561-0.41354-9.7136-0.63124-14.557-0.0977-1.691 0.5433-1.7815 0.25309-1.3184-0.32349 0.46316-0.57658 1.48-1.4396 1.9958-2.0447 17.74-18.424 35.807-36.527 53.772-54.73 0.26097-1.4294 0.22453-2.1866-0.02437-2.5024-0.24897-0.31586-0.70932-0.18844-1.3 0.14647-1.1814 0.66986-2.8794 2.1766-4.4189 2.6733-3.4258 1.2094-6.9727 1.2132-10.541 0.89111-3.5681-0.32208-7.1573-0.97018-10.669-1.0681-5.5977-0.28125-11.184-1.6205-16.785-1.2756-1.6708 0.85213-2.6599 2.3478-3.4485 4.0161-0.78863 1.6683-1.3768 3.5092-2.2522 5.0415l-5.5115 12.024c0.82372 2.0406 1.5819 2.5185 2.3071 2.0813 0.72522-0.43718 1.4175-1.7894 2.0996-3.4058 1.4702-1.9483 2.6132-4.774 4.1443-7.0618 0.76554-1.1439 1.631-2.1503 2.6794-2.8503 1.0484-0.70009 2.2806-1.091 3.7903-0.99487 4.6271 0.55569 9.3013 0.97241 13.971 1.0254 4.6696 0.053 9.3348-0.25782 13.94-1.1597-19.029 18.849-37.635 38.135-57.166 56.47-0.04131 1.3724-0.16816 2.8326 0.11597 3.54 0.28412 0.7074 0.97922 0.662 2.594-0.98877 1.612-0.87727 3.2986-1.4056 5.0293-1.7029 1.7307-0.29731 3.5074-0.36178 5.2978-0.30518 3.581 0.11321 7.2207 0.70634 10.687 0.8789 9.3948 0.86814 18.79 2.1401 28.229 2.2583 1.8418-0.13694 3.4364-0.69568 4.8584-1.532 1.422-0.8363 2.671-1.9513 3.8269-3.2044 2.3118-2.506 4.2455-5.5616 6.4148-8.0383 2.0253-1.9426 3.4283-4.363 4.1321-6.9763 0.70377-2.6133 0.70834-5.4196-0.06716-8.1238-0.92195-3.374-2.4568-6.7192-3.479-10.132-0.51109-1.7064-0.89076-3.429-1.0071-5.1819-0.11631-1.7528 0.03369-3.535 0.59204-5.3589 0.43592-1.9345 1.2759-3.6287 2.4048-5.0781s2.5443-2.6526 4.1382-3.6133 3.3631-1.6801 5.1941-2.1484c1.831-0.4683 3.7261-0.68701 5.5664-0.65919 2.2323 0.128 5.2579-0.12312 8.0505-0.10987 2.7927 0.0131 5.3524 0.29091 6.6406 1.471-3.836 15.114-7.3432 30.316-11.438 45.361-0.7025 2.5279-1.7242 5.3123-3.3081 7.5562-0.79197 1.1219-1.721 2.1112-2.8259 2.8625-1.1049 0.7513-2.3839 1.2656-3.8635 1.4465-1.5839-0.147-2.9095 0.14144-4.0527 0.78125-1.1432 0.6398-2.104 1.631-2.9602 2.8809-0.76912 0.71879-0.81334 1.1171-0.42114 1.3184s1.2191 0.20706 2.1973 0.14647c1.9563-0.12116 4.5109-0.51193 5.3589-0.14647 5.0726-0.13416 10.361 0.0565 15.503-0.43946 2.5711-0.24797 5.105-0.6689 7.5562-1.3855 2.4512-0.71659 4.8221-1.7304 7.0618-3.1677 0.88098-0.72946 0.99416-1.1007 0.64698-1.2573-0.34719-0.15666-1.1536-0.0975-2.1179 0.0366-1.9286 0.26825-4.4816 0.83472-5.2124 0.57372-5.4838 0.36846-10.991 0.56428-16.48 0.17094 3.1885-2.5311 6.2428-5.4147 8.6853-8.7036 2.4426-3.289 4.2734-6.9833 5.0049-11.127 3.0682-12.452 6.1978-24.889 9.2895-37.335 3.5053 0.14184 7.0286 0.61074 10.547 0.92774 3.5183 0.31699 7.0317 0.48207 10.529 0.0122 1.059-0.55755 1.9032-1.3822 2.5818-2.3682 0.67864-0.98591 1.1936-2.1308 1.5808-3.3325 0.77451-2.4034 1.0535-5.028 1.1963-7.019z" fill="#212121" />
<path d="m141.05 37.059c-1.19 2.4266-2.6844 5.0388-4.6692 6.8237-0.99239 0.89247-2.1084 1.5774-3.3691 1.9287-1.2607 0.35136-2.6664 0.37031-4.2419-0.07325-5.9792-0.05531-11.974-0.55976-17.963-0.85449-5.9889-0.29472-11.972-0.37976-17.932 0.39673-2.8249 0.41322-5.7057 1.134-8.4839 2.1667-2.7782 1.0327-5.4562 2.375-7.8796 4.0344-2.4235 1.6594-4.5931 3.6332-6.3538 5.9265-1.7607 2.2934-3.1103 4.9085-3.9001 7.843-0.73394 2.7042-0.88101 5.7128-0.46997 8.5876 0.41104 2.8748 1.3802 5.6158 2.8686 7.7942 1.6588 2.191 3.0298 4.9648 3.4912 7.7759 0.23069 1.4055 0.23678 2.8196-0.06712 4.1748-0.30391 1.3552-0.91504 2.6527-1.9104 3.8208-1.2615 1.1117-2.662 1.8289-4.1504 2.2766-1.4884 0.44776-3.0672 0.62328-4.6753 0.66529-3.2161 0.084-6.5617-0.38247-9.613-0.37232-4.84-0.24659-9.6947-0.85599-14.551-1.2695-4.8561-0.41354-9.7136-0.63124-14.557-0.0977-1.691 0.5433-1.7815 0.25309-1.3184-0.32349 0.46316-0.57658 1.48-1.4396 1.9958-2.0447 17.74-18.424 35.807-36.527 53.772-54.73 0.26097-1.4294 0.22453-2.1866-0.02437-2.5024-0.24897-0.31586-0.70932-0.18844-1.3 0.14647-1.1814 0.66986-2.8794 2.1766-4.4189 2.6733-3.4258 1.2094-6.9727 1.2132-10.541 0.89111-3.5681-0.32208-7.1573-0.97018-10.669-1.0681-5.5977-0.28125-11.184-1.6205-16.785-1.2756-1.6708 0.85213-2.6599 2.3478-3.4485 4.0161-0.78863 1.6683-1.3768 3.5092-2.2522 5.0415l-5.5115 12.024c0.82372 2.0406 1.5819 2.5185 2.3071 2.0813 0.72522-0.43718 1.4175-1.7894 2.0996-3.4058 1.4702-1.9483 2.6132-4.774 4.1443-7.0618 0.76554-1.1439 1.631-2.1503 2.6794-2.8503 1.0484-0.70009 2.2806-1.091 3.7903-0.99487 4.6271 0.55569 9.3013 0.97241 13.971 1.0254 4.6696 0.053 9.3348-0.25782 13.94-1.1597-19.029 18.849-37.635 38.135-57.166 56.47-0.04131 1.3724-0.16816 2.8326 0.11597 3.54 0.28412 0.7074 0.97922 0.662 2.594-0.98877 1.612-0.87727 3.2986-1.4056 5.0293-1.7029 1.7307-0.29731 3.5074-0.36178 5.2978-0.30518 3.581 0.11321 7.2207 0.70634 10.687 0.8789 9.3948 0.86814 18.79 2.1401 28.229 2.2583 1.8418-0.13694 3.4364-0.69568 4.8584-1.532 1.422-0.8363 2.671-1.9513 3.8269-3.2044 2.3118-2.506 4.2455-5.5616 6.4148-8.0383 2.0253-1.9426 3.4283-4.363 4.1321-6.9763 0.70377-2.6133 0.70834-5.4196-0.06716-8.1238-0.92195-3.374-2.4568-6.7192-3.479-10.132-0.51109-1.7064-0.89076-3.429-1.0071-5.1819-0.11631-1.7528 0.03369-3.535 0.59204-5.3589 0.43592-1.9345 1.2759-3.6287 2.4048-5.0781s2.5443-2.6526 4.1382-3.6133 3.3631-1.6801 5.1941-2.1484c1.831-0.4683 3.7261-0.68701 5.5664-0.65919 2.2323 0.128 5.2579-0.12312 8.0505-0.10987 2.7927 0.0131 5.3524 0.29091 6.6406 1.471-3.836 15.114-7.3432 30.316-11.438 45.361-0.7025 2.5279-1.7242 5.3123-3.3081 7.5562-0.79197 1.1219-1.721 2.1112-2.8259 2.8625-1.1049 0.7513-2.3839 1.2656-3.8635 1.4465-1.5839-0.147-2.9095 0.14144-4.0527 0.78125-1.1432 0.6398-2.104 1.631-2.9602 2.8809-0.76912 0.71879-0.81334 1.1171-0.42114 1.3184s1.2191 0.20706 2.1973 0.14647c1.9563-0.12116 4.5109-0.51193 5.3589-0.14647 5.0726-0.13416 10.361 0.0565 15.503-0.43946 2.5711-0.24797 5.105-0.6689 7.5562-1.3855 2.4512-0.71659 4.8221-1.7304 7.0618-3.1677 0.88098-0.72946 0.99416-1.1007 0.64698-1.2573-0.34719-0.15666-1.1536-0.0975-2.1179 0.0366-1.9286 0.26825-4.4816 0.83472-5.2124 0.57372-5.4838 0.36846-10.991 0.56428-16.48 0.17094 3.1885-2.5311 6.2428-5.4147 8.6853-8.7036 2.4426-3.289 4.2734-6.9833 5.0049-11.127 3.0682-12.452 6.1978-24.889 9.2895-37.335 3.5053 0.14184 7.0286 0.61074 10.547 0.92774 3.5183 0.31699 7.0317 0.48207 10.529 0.0122 1.059-0.55755 1.9032-1.3822 2.5818-2.3682 0.67864-0.98591 1.1936-2.1308 1.5808-3.3325 0.77451-2.4034 1.0535-5.028 1.1963-7.019z" fill="#72a0cf" />
</g>
</svg>
