<?xml version="1.0" encoding="UTF-8" standalone="no"?>
<!-- Created with Inkscape (http://www.inkscape.org/) -->

<svg
   xmlns:dc="http://purl.org/dc/elements/1.1/"
   xmlns:cc="http://creativecommons.org/ns#"
   xmlns:rdf="http://www.w3.org/1999/02/22-rdf-syntax-ns#"
   xmlns:svg="http://www.w3.org/2000/svg"
   xmlns="http://www.w3.org/2000/svg"
   xmlns:sodipodi="http://sodipodi.sourceforge.net/DTD/sodipodi-0.dtd"
   xmlns:inkscape="http://www.inkscape.org/namespaces/inkscape"
   width="200"
   height="200"
   viewBox="0 0 200 200"
   version="1.1"
   id="svg8"
   inkscape:version="0.92.3 (2405546, 2018-03-11)"
   sodipodi:docname="icon_200.svg">
  <defs
     id="defs2" />
  <sodipodi:namedview
     id="base"
     pagecolor="#ffffff"
     bordercolor="#666666"
     borderopacity="1.0"
     inkscape:pageopacity="0.0"
     inkscape:pageshadow="2"
     inkscape:zoom="3.26"
     inkscape:cx="100"
     inkscape:cy="100"
     inkscape:document-units="px"
     inkscape:current-layer="svg8"
     showgrid="true"
     units="px"
     inkscape:window-width="1600"
     inkscape:window-height="849"
     inkscape:window-x="0"
     inkscape:window-y="24"
     inkscape:window-maximized="1">
    <inkscape:grid
       type="xygrid"
       id="grid811" />
  </sodipodi:namedview>
  <metadata
     id="metadata5">
    <rdf:RDF>
      <cc:Work
         rdf:about="">
        <dc:format>image/svg+xml</dc:format>
        <dc:type
           rdf:resource="http://purl.org/dc/dcmitype/StillImage" />
        <dc:title></dc:title>
      </cc:Work>
    </rdf:RDF>
  </metadata>
  <path
     style="opacity:1;fill:#72a0cf;fill-opacity:1;fill-rule:evenodd;stroke:none;stroke-width:4.82242823;stroke-linecap:butt;stroke-linejoin:round;stroke-miterlimit:32.59999847;stroke-dasharray:none;stroke-dashoffset:0;stroke-opacity:1;paint-order:normal"
     d="M 33.333333,0 C 14.866667,0 0,14.866667 0,33.33333 V 166.66667 C 0,185.13333 14.866667,200 33.333333,200 H 166.66667 C 185.13333,200 200,185.13333 200,166.66667 V 33.33333 C 200,14.866667 185.13333,0 166.66667,0 Z m 154.630537,50.74871 1.48926,1.71712 c -0.38088,5.30959 -1.49721,13.986 -7.14519,16.95963 -9.32502,1.253 -18.75307,-0.875 -28.10058,-1.25325 -4.12239,16.59487 -8.29506,33.17787 -12.38607,49.78025 -1.9507,11.04921 -9.75099,19.69087 -18.25358,26.44046 7.31753,0.52441 14.66099,0.26333 21.97266,-0.22792 1.94891,0.69596 13.60969,-3.02787 8.91113,0.86263 -11.94492,7.66566 -26.63427,6.29908 -40.16113,6.65687 -2.26128,-0.9745 -13.61533,2.07579 -9.51335,-1.75779 2.28335,-3.33304 5.12675,-5.27484 9.35058,-4.88284 7.89141,-0.96479 11.45674,-9.07912 13.33008,-15.82029 5.45969,-20.06029 10.13605,-40.32933 15.25065,-60.48175 -3.43539,-3.14679 -13.6355,-1.47346 -19.58821,-1.81479 -9.81498,-0.14833 -20.74634,5.01496 -23.07129,15.33204 -2.977805,9.72754 2.73351,18.56613 5.19205,27.56346 2.06795,7.21117 -0.0192,14.95333 -5.419918,20.13346 -5.784737,6.60475 -10.310762,16.30258 -20.133462,17.03287 -12.585433,-0.1575 -25.111925,-1.85354 -37.638346,-3.01104 -9.244224,-0.46016 -19.422001,-3.17325 -28.019206,1.50554 -4.306063,4.402 -3.723436,0.25834 -3.613281,-3.4017 C 36.456741,117.63583 61.265271,91.921 86.637371,66.78871 74.355554,69.19367 61.761196,68.44958 49.4222,66.96787 41.370296,66.45525 39.190666,76.31504 35.270182,81.5105 c -1.819052,4.31037 -3.679074,7.20762 -5.875651,1.76596 l 7.348633,-16.03192 c 2.334432,-4.08617 3.145573,-9.80446 7.600911,-12.07683 7.467646,-0.45979 14.915904,1.32587 22.379558,1.70087 9.36445,0.26125 19.144238,3.46092 28.279621,0.23584 4.105513,-1.32455 9.049726,-8.0465 7.657876,-0.42317 -23.953372,24.27038 -48.043234,48.40892 -71.695961,72.97362 -1.375668,1.61363 -5.412693,4.60634 -0.90332,3.15755 12.915522,-1.42288 25.903559,1.16533 38.810222,1.82291 8.136808,-0.025 17.856904,2.50288 24.584962,-3.42612 5.308584,-6.22988 2.405342,-15.18592 -2.018233,-21.02863 -3.969267,-5.809 -5.155429,-14.63121 -3.198242,-21.84246 4.212517,-15.65075 20.423682,-24.42379 35.489912,-26.62758 15.89345,-2.07062 31.91516,0.46279 47.8597,0.61033 8.40283,2.36563 13.20025,-5.10141 16.3737,-11.57225 z"
     id="rect813"
     inkscape:connector-curvature="0" />
</svg>
