<?xml version="1.0" encoding="UTF-8"?>
<svg width="24" height="24" version="1.1" viewBox="0 0 24 24" xmlns="http://www.w3.org/2000/svg">
<metadata>
<rdf:RDF xmlns:rdf="http://www.w3.org/1999/02/22-rdf-syntax-ns#" xmlns:rdfs="http://www.w3.org/2000/01/rdf-schema#" xmlns:dc="http://purl.org/dc/elements/1.1/"><rdf:Description dc:creator="Nico Dorn" dc:publisher="Akademie der Wissenschaften zu Göttingen, „Wortgeschichte digital“ („Zentrum für digitale Lexikographie der deutschen Sprache“)" dc:rights="GPL-3.0-only"></rdf:Description></rdf:RDF>
</metadata>
<path d="m9.9756 20c-1.2351-0.008323-2.6793-0.3125-3.3599-1.4591-0.53533-0.99056-0.26894-2.1507-0.34207-3.2234-0.0081525-0.74227 0.14694-1.6937-0.52915-2.2036-0.49656-0.37212-1.142-0.44918-1.7444-0.44973v-1.3388c0.79878-0.012117 1.8227-0.16324 2.1638-1.005 0.21635-0.83298 0.072069-1.7026 0.11829-2.5525-0.03799-0.97352-0.048567-2.1062 0.74243-2.811 0.76235-0.71738 1.8457-0.92209 2.8558-0.95686 0.2131 0.23951 0.046767 0.66778 0.095194 0.9926 0.14372 0.48704-0.37995 0.30296-0.69105 0.4054-0.6573 0.10901-1.3366 0.58907-1.3476 1.3169-0.10823 1.1633 0.047741 2.3391-0.083528 3.5004-0.1021 0.75848-0.68885 1.3995-1.4368 1.5604-0.27051 0.079214-0.79754 0.29592-0.23584 0.32126 0.84518 0.19405 1.6553 0.86641 1.686 1.79 0.080883 0.92577 0.01495 1.8578 0.031308 2.7857-0.088339 0.77368 0.24678 1.6639 1.0753 1.8551 0.36169 0.23141 1.1729-0.10286 1.0021 0.52789v0.94442z"/>
<path d="m14.024 20c1.2351-0.008323 2.6793-0.3125 3.3599-1.4591 0.53533-0.99056 0.26894-2.1507 0.34207-3.2234 0.008153-0.74227-0.14694-1.6937 0.52915-2.2036 0.49656-0.37212 1.142-0.44918 1.7444-0.44973v-1.3388c-0.79878-0.012117-1.8227-0.16324-2.1638-1.005-0.21635-0.83298-0.07207-1.7026-0.11829-2.5525 0.037991-0.97352 0.048568-2.1062-0.74243-2.811-0.76235-0.71738-1.8457-0.92209-2.8558-0.95686-0.2131 0.23951-0.046767 0.66778-0.095194 0.9926-0.14372 0.48704 0.37996 0.30296 0.69105 0.4054 0.6573 0.10901 1.3366 0.58907 1.3476 1.3169 0.10823 1.1633-0.047741 2.3391 0.083528 3.5004 0.1021 0.75848 0.68885 1.3995 1.4368 1.5604 0.27051 0.079214 0.79754 0.29592 0.23584 0.32126-0.84518 0.19405-1.6553 0.86641-1.686 1.79-0.080883 0.92577-0.014949 1.8578-0.031308 2.7857 0.088339 0.77368-0.24678 1.6639-1.0753 1.8551-0.36169 0.23141-1.1729-0.10286-1.0021 0.52789v0.94442z"/>
</svg>
