<?xml version="1.0" encoding="UTF-8"?>
<svg width="24" height="24" version="1.1" viewBox="0 0 24 24" xmlns="http://www.w3.org/2000/svg">
<metadata>
<rdf:RDF xmlns:rdf="http://www.w3.org/1999/02/22-rdf-syntax-ns#" xmlns:rdfs="http://www.w3.org/2000/01/rdf-schema#" xmlns:dc="http://purl.org/dc/elements/1.1/"><rdf:Description dc:creator="Nico Dorn" dc:publisher="Akademie der Wissenschaften zu Göttingen, „Wortgeschichte digital“ („Zentrum für digitale Lexikographie der deutschen Sprache“)" dc:rights="GPL-3.0-only"></rdf:Description></rdf:RDF>
</metadata>
<rect x="4" y="4" width="16" height="16" fill="#080"/>
<g fill="#fff">
<path d="m9.84 17.813q-1.2267-0.013334-1.9333-0.53333-0.70666-0.52-0.70666-1.5867v-1.96q0-0.68-0.42667-0.96-0.41333-0.29333-1.2-0.29333v-0.97333q0.78666-0.013333 1.2-0.29333 0.42667-0.28 0.42667-0.94666v-1.9733q0-1.0667 0.73333-1.5867 0.73333-0.52 1.9067-0.52v0.96q-0.69333 0.013333-1.0933 0.30667-0.38667 0.29333-0.38667 0.94666v1.92q0 1.3733-1.4533 1.6267v0.08q1.4533 0.25333 1.4533 1.6267v1.96q0 0.65333 0.38667 0.93333 0.38667 0.29333 1.0933 0.30667z"/>
<path d="m14.16 16.853q0.69333-0.02667 1.08-0.32 0.4-0.28 0.4-0.93333v-1.9333q0-1.3733 1.4533-1.6267v-0.08q-1.4533-0.25333-1.4533-1.6267v-1.9467q0-0.65333-0.38667-0.93333-0.38666-0.29333-1.0933-0.30667v-0.96q1.2267 0.013333 1.9333 0.53333 0.70666 0.52 0.70666 1.5867v1.9467q0 0.68 0.41333 0.97333 0.42667 0.28 1.2133 0.28v0.97333q-0.78666 0.01333-1.2133 0.29333-0.41333 0.28-0.41333 0.94666v1.9867q0 1.0533-0.73333 1.5733-0.73333 0.53333-1.9067 0.53333z"/>
</g>
</svg>
