<?xml version="1.0" encoding="UTF-8"?>
<svg width="24" height="24" version="1.1" viewBox="0 0 24 24" xmlns="http://www.w3.org/2000/svg">
<metadata>
<rdf:RDF xmlns:rdf="http://www.w3.org/1999/02/22-rdf-syntax-ns#" xmlns:rdfs="http://www.w3.org/2000/01/rdf-schema#" xmlns:dc="http://purl.org/dc/elements/1.1/"><rdf:Description dc:creator="Nico Dorn" dc:publisher="Akademie der Wissenschaften zu Göttingen, „Wortgeschichte digital“ („Zentrum für digitale Lexikographie der deutschen Sprache“)" dc:rights="GPL-3.0-only"></rdf:Description></rdf:RDF>
</metadata>
<path d="m7 4c-1.662 0-3 1.338-3 3v10c0 1.662 1.338 3 3 3h10c1.662 0 3-1.338 3-3v-10c0-1.662-1.338-3-3-3h-10zm2.6855 2h0.31445v0.9082h-0.34375c-0.47535 0-0.78472 0.093054-0.92969 0.2793s-0.21875 0.577-0.21875 1.1738v1.5742c0 0.66455-0.077344 1.1487-0.23242 1.4492-0.15171 0.30053-0.41236 0.50356-0.7832 0.60938 0.37421 0.11428 0.63736 0.32056 0.78906 0.62109s0.22656 0.78109 0.22656 1.4414v1.5742c0 0.59683 0.073786 0.98954 0.21875 1.1758 0.14496 0.18624 0.45434 0.2793 0.92969 0.2793h0.34375v0.91406h-0.31445c-0.83944 0-1.4009-0.15748-1.6875-0.4707-0.28319-0.31323-0.42578-0.9376-0.42578-1.873v-1.5156c0-0.63915-0.091389-1.0826-0.27344-1.3281-0.18205-0.2455-0.51152-0.36719-0.99023-0.36719h-0.30859v-0.9082h0.30859c0.48209 0 0.81156-0.12201 0.99023-0.36328 0.18205-0.2455 0.27344-0.68376 0.27344-1.3145v-1.5234c0-0.93545 0.1426-1.5562 0.42578-1.8652 0.28656-0.31323 0.84806-0.4707 1.6875-0.4707zm4.3145 0h0.31445c0.83944 0 1.4009 0.15748 1.6875 0.4707 0.28319 0.30899 0.42578 0.92978 0.42578 1.8652v1.5234c0 0.63069 0.09139 1.069 0.27344 1.3145 0.17868 0.24127 0.50814 0.36328 0.99023 0.36328h0.30859v0.9082h-0.30859c-0.47872 1e-6 -0.80819 0.12168-0.99023 0.36719s-0.27344 0.68897-0.27344 1.3281v1.5156c0 0.93545-0.1426 1.5598-0.42578 1.873-0.28656 0.31323-0.84806 0.4707-1.6875 0.4707h-0.31445v-0.91406h0.34375c0.47535 0 0.78472-0.093054 0.92969-0.2793 0.14496-0.18624 0.21875-0.57896 0.21875-1.1758v-1.5742c0-0.66032 0.074855-1.1409 0.22656-1.4414s0.41485-0.50681 0.78906-0.62109c-0.37084-0.10582-0.6315-0.30885-0.7832-0.60938-0.15508-0.30053-0.23242-0.78467-0.23242-1.4492v-1.5742c-1e-6 -0.59683-0.073786-0.98758-0.21875-1.1738-0.14496-0.18624-0.45434-0.2793-0.92969-0.2793h-0.34375v-0.9082z" fill="#212121"/>
</svg>
