<?xml version="1.0" encoding="UTF-8" standalone="no"?>
<svg
   xmlns:dc="http://purl.org/dc/elements/1.1/"
   xmlns:cc="http://creativecommons.org/ns#"
   xmlns:rdf="http://www.w3.org/1999/02/22-rdf-syntax-ns#"
   xmlns:svg="http://www.w3.org/2000/svg"
   xmlns="http://www.w3.org/2000/svg"
   xmlns:sodipodi="http://sodipodi.sourceforge.net/DTD/sodipodi-0.dtd"
   xmlns:inkscape="http://www.inkscape.org/namespaces/inkscape"
   width="96"
   height="96"
   version="1.1"
   viewBox="0 0 96 96"
   id="svg6"
   sodipodi:docname="kopieren-animation-kopieren.svg"
   inkscape:version="0.92.3 (2405546, 2018-03-11)">
  <defs
     id="defs10" />
  <sodipodi:namedview
     pagecolor="#ffffff"
     bordercolor="#666666"
     borderopacity="1"
     objecttolerance="10"
     gridtolerance="10"
     guidetolerance="10"
     inkscape:pageopacity="0"
     inkscape:pageshadow="2"
     inkscape:window-width="1600"
     inkscape:window-height="849"
     id="namedview8"
     showgrid="true"
     inkscape:zoom="7"
     inkscape:cx="48"
     inkscape:cy="48"
     inkscape:window-x="0"
     inkscape:window-y="24"
     inkscape:window-maximized="1"
     inkscape:current-layer="svg6">
    <inkscape:grid
       type="xygrid"
       id="grid817" />
  </sodipodi:namedview>
  <metadata
     id="metadata2">
    <rdf:RDF>
      <rdf:Description
         dc:publisher="Papirus Development Team"
         dc:rights="GPL-3.0-only" />
      <cc:Work
         rdf:about="">
        <dc:format>image/svg+xml</dc:format>
        <dc:type
           rdf:resource="http://purl.org/dc/dcmitype/StillImage" />
        <dc:title></dc:title>
      </cc:Work>
    </rdf:RDF>
  </metadata>
  <path
     d="m 26,18 c 0,0 -4,0 -4,4 v 36 c 0,0 0,4 4,4 h 4 V 26 h 32 v -4 c 0,-4 -4,-4 -4,-4 z m 12,12 c 0,0 -4,0 -4,4 v 40 c 0,4 4,4 4,4 h 32 c 0,0 4,-0.004 4,-4.0156 v -39.984 c 0,-4 -4,-4 -4,-4 z m 4,8 H 66 V 70 H 42 Z"
     id="path4"
     inkscape:connector-curvature="0"
     style="fill:#72a0cf;stroke-width:2" />
</svg>
