<?xml version="1.0" encoding="UTF-8" standalone="no"?>
<svg
   xmlns:dc="http://purl.org/dc/elements/1.1/"
   xmlns:cc="http://creativecommons.org/ns#"
   xmlns:rdf="http://www.w3.org/1999/02/22-rdf-syntax-ns#"
   xmlns:svg="http://www.w3.org/2000/svg"
   xmlns="http://www.w3.org/2000/svg"
   xmlns:sodipodi="http://sodipodi.sourceforge.net/DTD/sodipodi-0.dtd"
   xmlns:inkscape="http://www.inkscape.org/namespaces/inkscape"
   width="96"
   height="96"
   version="1.1"
   viewBox="0 0 96 96"
   id="svg6"
   sodipodi:docname="zwischenablage-gross.svg"
   inkscape:version="0.92.3 (2405546, 2018-03-11)">
  <defs
     id="defs10" />
  <sodipodi:namedview
     pagecolor="#ffffff"
     bordercolor="#666666"
     borderopacity="1"
     objecttolerance="10"
     gridtolerance="10"
     guidetolerance="10"
     inkscape:pageopacity="0"
     inkscape:pageshadow="2"
     inkscape:window-width="1600"
     inkscape:window-height="849"
     id="namedview8"
     showgrid="true"
     inkscape:zoom="7"
     inkscape:cx="48"
     inkscape:cy="48"
     inkscape:window-x="0"
     inkscape:window-y="24"
     inkscape:window-maximized="1"
     inkscape:current-layer="svg6">
    <inkscape:grid
       type="xygrid"
       id="grid817" />
  </sodipodi:namedview>
  <metadata
     id="metadata2">
    <rdf:RDF>
      <rdf:Description
         dc:publisher="Papirus Development Team"
         dc:rights="GPL-3.0-only" />
      <cc:Work
         rdf:about="">
        <dc:format>image/svg+xml</dc:format>
        <dc:type
           rdf:resource="http://purl.org/dc/dcmitype/StillImage" />
        <dc:title></dc:title>
      </cc:Work>
    </rdf:RDF>
  </metadata>
  <path
     d="m 48,17.999998 c -4.4184,0 -8,3.58172 -8,8 H 28 c -4,0 -4,4 -4,4 v 44.000004 c 0,4 4,4 4,4 h 40 c 0,0 4,0 4,-4 V 29.999998 c 0,-4 -4,-4 -4,-4 H 56 c 0,-0.55228 -0.0204,-1.1042 -0.125,-1.625 -0.74596,-3.64548 -4.0088,-6.3748 -7.8752,-6.3748 z m 0,4 c 1.65684,0 3.01776,1.06432 3.625,2.5 0.2024,0.47856 0.375,0.94772 0.375,1.5 0,2.20912 -1.79084,4 -4,4 -2.20916,0 -4,-1.79088 -4,-4 0,-2.20912 1.79084,-4 4,-4 z m -16,12 h 4 v 4 h 24 v -4 h 4 V 70.000002 H 32 Z"
     id="path4"
     inkscape:connector-curvature="0"
     style="fill:#72a0cf;stroke-width:4;fill-opacity:1" />
</svg>
