<?xml version="1.0" encoding="UTF-8"?>
<svg width="24" height="24" version="1.1" viewBox="0 0 24 24" xmlns="http://www.w3.org/2000/svg">
<metadata>
<rdf:RDF xmlns:rdf="http://www.w3.org/1999/02/22-rdf-syntax-ns#" xmlns:rdfs="http://www.w3.org/2000/01/rdf-schema#" xmlns:dc="http://purl.org/dc/elements/1.1/"><rdf:Description dc:publisher="Papirus Development Team" dc:rights="GPL-3.0-only"></rdf:Description></rdf:RDF>
</metadata>
<path transform="translate(4 4)" d="m8 1c-3.863 0-7 3.137-7 7s3.137 7 7 7 7-3.137 7-7-3.137-7-7-7zm0 2c1.0194 0 1.959 0.28763 2.75 0.8125l-6.9375 6.9375c-0.52487-0.79102-0.8125-1.7306-0.8125-2.75 0-2.7593 2.2408-5 5-5zm4.1875 2.25c0.52487 0.79102 0.8125 1.7306 0.8125 2.75 0 2.7592-2.2408 5-5 5-1.0194 0-1.959-0.28763-2.75-0.8125l6.9375-6.9375z" fill="#d00"/>
</svg>
