<?xml version="1.0" encoding="UTF-8"?>
<svg width="24" height="24" version="1.1" xmlns="http://www.w3.org/2000/svg">
<metadata>
<rdf:RDF xmlns:rdf="http://www.w3.org/1999/02/22-rdf-syntax-ns#" xmlns:rdfs="http://www.w3.org/2000/01/rdf-schema#" xmlns:dc="http://purl.org/dc/elements/1.1/"><rdf:Description dc:publisher="Papirus Development Team" dc:rights="GPL-3.0-only"></rdf:Description></rdf:RDF>
</metadata>
<path transform="translate(4,4)" d="m5 0c-2.77 0-5 2.23-5 5s2.23 5 5 5h2v-2h-2c-1.662 0-3-1.338-3-3s1.338-3 3-3h2v-2zm4 0v2h2c1.662 0 3 1.338 3 3s-1.338 3-3 3h-2v2h2c2.77 0 5-2.23 5-5s-2.23-5-5-5zm-4 4v2h6v-2zm0 8 3 4 3-4z" fill="#212121"/>
</svg>
