<?xml version="1.0" encoding="UTF-8"?>
<svg width="24" height="24" version="1.1" viewBox="0 0 24 24" xmlns="http://www.w3.org/2000/svg">
<metadata>
<rdf:RDF xmlns:rdf="http://www.w3.org/1999/02/22-rdf-syntax-ns#" xmlns:rdfs="http://www.w3.org/2000/01/rdf-schema#" xmlns:dc="http://purl.org/dc/elements/1.1/"><rdf:Description dc:publisher="Papirus Development Team" dc:rights="GNU General Public License v3.0"></rdf:Description></rdf:RDF>
</metadata>
<path d="m14.029 5.0004c-0.14738 0.0035-0.29995 0.01751-0.45898 0.043292-0.56691 0.091929-1.2516 0.41341-2.0156 0.88864-1.5406-0.9953-2.7409-1.0559-3.748-0.75192-1.0688 0.32258-1.9377 0.8494-3.291 0.80205l-0.51562-0.018228v13.036h15v-13.015l-0.51758 0.020507c-1.5166 0.064397-2.2705-0.46277-3.25-0.80432-0.3673-0.12809-0.76102-0.21103-1.2031-0.20051zm-4.8105 1.1598c0.49899 0.045032 1.0634 0.2559 1.7812 0.71774v10.178c-1.1044-0.74869-2.2098-0.80499-3.1836-0.52178-0.6532 0.18995-1.2472 0.4094-1.8164 0.58558v-10.181c0.8021-0.17258 1.4741-0.44225 2.0547-0.61749 0.23111-0.069764 0.45444-0.12696 0.68359-0.15494 0.15502-0.018899 0.31414-0.021768 0.48047-0.0068357zm5.1191 0.00911c0.2059 0.030915 0.40468 0.089963 0.61133 0.16177 0.53443 0.18637 1.1934 0.48129 2.0508 0.65395v10.13c-0.56984-0.17779-1.1625-0.39904-1.8105-0.58787-0.97984-0.28554-2.0914-0.21557-3.1895 0.56736v-10.149c0.70328-0.44975 1.2454-0.69565 1.6797-0.77015 0.23926-0.041065 0.4523-0.037517 0.6582-0.00684z" fill="#212121" stroke-width="1.0801"/>
</svg>
