<?xml version="1.0" encoding="UTF-8"?>
<svg width="24" height="24" version="1.1" viewBox="0 0 24 24" xmlns="http://www.w3.org/2000/svg">
<metadata>
<rdf:RDF xmlns:rdf="http://www.w3.org/1999/02/22-rdf-syntax-ns#" xmlns:rdfs="http://www.w3.org/2000/01/rdf-schema#" xmlns:dc="http://purl.org/dc/elements/1.1/"><rdf:Description dc:publisher="Papirus Development Team" dc:rights="GNU General Public License v3.0"></rdf:Description></rdf:RDF>
</metadata>
<path d="m14.698 4.0004c-0.1572 4e-3 -0.31995 0.020011-0.48958 0.049476-0.6047 0.10506-1.335 0.47246-2.15 1.0156-1.6433-1.1375-2.9236-1.2067-3.9979-0.85932-1.1401 0.36866-2.0669 0.97073-3.5104 0.91661l-0.54999-0.020832v14.898h16v-14.874l-0.55208 0.023436c-1.6177 0.073596-2.4219-0.52887-3.4667-0.91921-0.39179-0.14639-0.81176-0.24117-1.2833-0.22915zm-5.1312 1.3255c0.53226 0.051464 1.1343 0.29245 1.8999 0.82026v11.632c-1.178-0.85563-2.3571-0.91998-3.3958-0.59631-0.69675 0.21708-1.3303 0.46788-1.9375 0.66922v-11.635c0.85557-0.19723 1.5724-0.50542 2.1917-0.70569 0.24652-0.079729 0.48474-0.14509 0.72916-0.17707 0.16535-0.021598 0.33508-0.024877 0.5125-0.0078121zm5.4604 0.010411c0.21963 0.035331 0.43166 0.10281 0.65208 0.18488 0.57006 0.21299 1.273 0.55004 2.1875 0.74736v11.577c-0.60783-0.20318-1.24-0.45604-1.9312-0.67184-1.0452-0.32633-2.2308-0.24636-3.4021 0.6484v-11.599c0.75016-0.51399 1.3284-0.79502 1.7917-0.88016 0.25521-0.046931 0.48245-0.042876 0.70208-0.00782z" fill="#212121" stroke-width="1.1925"/>
</svg>
