<?xml version="1.0" encoding="UTF-8"?>
<svg width="24" height="24" version="1.1" viewBox="0 0 24 24" xmlns="http://www.w3.org/2000/svg">
<metadata>
<rdf:RDF xmlns:rdf="http://www.w3.org/1999/02/22-rdf-syntax-ns#" xmlns:rdfs="http://www.w3.org/2000/01/rdf-schema#" xmlns:dc="http://purl.org/dc/elements/1.1/"><rdf:Description dc:creator="Nico Dorn" dc:publisher="Zentrum für digitale Lexikographie der deutschen Sprache" dc:rights="GNU General Public License v3.0"></rdf:Description></rdf:RDF>
</metadata>
<path d="m14.697 4c-0.1572 4e-3 -0.31865 0.021316-0.48828 0.050781-0.6047 0.10506-1.3354 0.47248-2.1504 1.0156-1.6433-1.1375-2.9237-1.2068-3.998-0.85938-1.1401 0.36866-2.0663 0.97014-3.5098 0.91602l-0.55078-0.021484v14.898h5.2227l-1.4023-1.4023c-0.32212-0.32213-0.52291-0.71076-0.61328-1.1172-0.3591 0.12785-0.7376 0.25947-1.0742 0.37109v-11.635c0.85557-0.19723 1.5721-0.50676 2.1914-0.70703 0.24652-0.079729 0.48605-0.1438 0.73047-0.17578 0.16535-0.021598 0.3343-0.024877 0.51172-0.0078125 0.53226 0.051464 1.1348 0.2925 1.9004 0.82031v9.707l1.0664 1.0664v-10.697c0.75016-0.51399 1.3277-0.79377 1.791-0.87891 0.25521-0.046931 0.4835-0.042868 0.70312-0.0078125 0.21963 0.035331 0.43192 0.10348 0.65234 0.18555 0.57006 0.21299 1.273 0.54877 2.1875 0.74609v5.6562l2.1328-2.4414v-4.3574l-0.55273 0.023438c-1.6177 0.073596-2.422-0.52763-3.4668-0.91797-0.39179-0.14639-0.81166-0.24054-1.2832-0.22852v-0.0019531zm5.3027 12.273-3.2617 3.7266h3.2617v-3.7266z" fill="#212121"/>
<path d="m21.938 9.6381c-0.1193-0.022414-0.24318-0.02371-0.37053 0.00242-0.2714 0.058649-0.5215 0.21145-0.69746 0.42623l-7.7884 8.912-2.7899-2.7899c-0.46663-0.46669-1.3157-0.46665-1.7824 0-0.46665 0.46666-0.46669 1.3157 0 1.7824l3.7198 3.7198 0.9687 0.92995 0.85246-1.0074 8.6796-9.9195c0.61562-0.6702 0.04315-1.8992-0.79191-2.0561z" fill="#32af79"/>
</svg>
