<?xml version="1.0" encoding="UTF-8"?>
<svg width="24" height="24" version="1.1" viewBox="0 0 24 24" xmlns="http://www.w3.org/2000/svg">
<metadata>
<rdf:RDF xmlns:rdf="http://www.w3.org/1999/02/22-rdf-syntax-ns#" xmlns:rdfs="http://www.w3.org/2000/01/rdf-schema#" xmlns:dc="http://purl.org/dc/elements/1.1/"><rdf:Description dc:creator="Nico Dorn" dc:publisher="Akademie der Wissenschaften zu Göttingen, „Wortgeschichte digital“ („Zentrum für digitale Lexikographie der deutschen Sprache“)" dc:rights="GPL-3.0-only"></rdf:Description></rdf:RDF>
</metadata>
<path d="m7 4c-1.662 0-3 1.338-3 3v10c0 1.662 1.338 3 3 3h10c1.662 0 3-1.338 3-3v-10c0-1.662-1.338-3-3-3h-10zm2.832 4.2871c1.008 0 1.8073 0.43256 2.5273 0.97656 0.592 0.432 1.1198 0.81641 1.8398 0.81641 0.928 0 1.8399-0.84897 2.3359-1.793l1.3125 0.99219c-0.8 1.344-2.0797 2.4336-3.6797 2.4336-0.992 0-1.8073-0.43256-2.5273-0.97656-0.592-0.432-1.1042-0.81641-1.8242-0.81641-0.944 0-1.8556 0.86497-2.3516 1.793l-1.3125-0.99219c0.816-1.344 2.0797-2.4336 3.6797-2.4336zm0 4c1.008 0 1.8073 0.43256 2.5273 0.97656 0.592 0.432 1.1198 0.81641 1.8398 0.81641 0.928 0 1.8399-0.86497 2.3359-1.793l1.3125 0.99219c-0.8 1.344-2.0797 2.4336-3.6797 2.4336-0.992 0-1.8073-0.43256-2.5273-0.97656-0.592-0.432-1.1042-0.81641-1.8242-0.81641-0.944 0-1.8556 0.84897-2.3516 1.793l-1.3125-0.99219c0.816-1.344 2.0797-2.4336 3.6797-2.4336z" fill="#212121"/>
</svg>
