<?xml version="1.0" encoding="UTF-8" standalone="no"?>
<svg
   xmlns:dc="http://purl.org/dc/elements/1.1/"
   xmlns:cc="http://creativecommons.org/ns#"
   xmlns:rdf="http://www.w3.org/1999/02/22-rdf-syntax-ns#"
   xmlns:svg="http://www.w3.org/2000/svg"
   xmlns="http://www.w3.org/2000/svg"
   xmlns:sodipodi="http://sodipodi.sourceforge.net/DTD/sodipodi-0.dtd"
   xmlns:inkscape="http://www.inkscape.org/namespaces/inkscape"
   width="24"
   height="24"
   viewBox="0 0 24 24"
   version="1.1"
   id="svg7"
   sodipodi:docname="auge.svg"
   inkscape:version="0.92.3 (2405546, 2018-03-11)">
  <metadata
     id="metadata11">
    <rdf:RDF>
      <cc:Work
         rdf:about="">
        <dc:format>image/svg+xml</dc:format>
        <dc:type
           rdf:resource="http://purl.org/dc/dcmitype/StillImage" />
        <dc:title></dc:title>
      </cc:Work>
    </rdf:RDF>
  </metadata>
  <sodipodi:namedview
     pagecolor="#ffffff"
     bordercolor="#666666"
     borderopacity="1"
     objecttolerance="10"
     gridtolerance="10"
     guidetolerance="10"
     inkscape:pageopacity="0"
     inkscape:pageshadow="2"
     inkscape:window-width="1600"
     inkscape:window-height="849"
     id="namedview9"
     showgrid="true"
     inkscape:zoom="27.166667"
     inkscape:cx="12"
     inkscape:cy="12"
     inkscape:window-x="0"
     inkscape:window-y="24"
     inkscape:window-maximized="1"
     inkscape:current-layer="svg7">
    <inkscape:grid
       type="xygrid"
       id="grid818" />
  </sodipodi:namedview>
  <defs
     id="defs3">
    <style
       id="current-color-scheme"
       type="text/css">
   .ColorScheme-Text { color:#444444; } .ColorScheme-Highlight { color:#5294e2; }
  </style>
  </defs>
  <path
     style="fill:#212121;fill-opacity:1"
     class="ColorScheme-Highlight"
     d="M 8 3 C 6.4492 3.0151 4.8879094 3.3692056 3.5371094 4.1347656 C 2.9987094 4.4854656 2.3523344 4.9381912 1.8652344 5.3945312 C 1.0987444 6.1451213 0.4427 7.0222531 0 8.0019531 C 1.2149 10.682053 3.8859187 12.645447 6.8242188 12.935547 C 8.7516188 13.153707 10.768591 12.820847 12.462891 11.867188 C 13.001291 11.516487 13.647666 11.063762 14.134766 10.607422 C 14.901256 9.8568419 15.5573 8.9816531 16 8.0019531 C 14.785 5.3219531 12.114181 3.3563063 9.1757812 3.0664062 C 8.7859013 3.0209263 8.39251 2.99999 8 3 z M 8 5 C 9.607 4.96439 11.0303 6.4033531 11 8.0019531 C 11.0515 9.7687531 9.2909813 11.292891 7.5507812 10.962891 C 5.7931812 10.756511 4.5587188 8.7835812 5.1367188 7.1132812 C 5.5058788 5.8836812 6.7125 4.9847 8 5 z M 8 7 A 1 1.0002 0 0 0 7 8.0019531 A 1 1.0002 0 0 0 8 9.0019531 A 1 1.0002 0 0 0 9 8.0019531 A 1 1.0002 0 0 0 8 7 z"
     transform="translate(4 4)"
     id="path5" />
</svg>
