<?xml version="1.0" encoding="UTF-8"?>
<svg width="24" height="24" version="1.1" viewBox="0 0 24 24" xmlns="http://www.w3.org/2000/svg">
<metadata>
<rdf:RDF xmlns:rdf="http://www.w3.org/1999/02/22-rdf-syntax-ns#" xmlns:rdfs="http://www.w3.org/2000/01/rdf-schema#" xmlns:dc="http://purl.org/dc/elements/1.1/"><rdf:Description dc:creator="Nico Dorn" dc:publisher="Akademie der Wissenschaften zu Göttingen, 'Wortgeschichte digital' ('Zentrum für digitale Lexikographie der deutschen Sprache')" dc:rights="GNU General Public License v3.0"></rdf:Description></rdf:RDF>
</metadata>
<path d="m7 4c-1.662 0-3 1.338-3 3v10c0 1.662 1.338 3 3 3h10c1.662 0 3-1.338 3-3v-10c0-1.662-1.338-3-3-3h-10zm5 2.0781c1.5755 0 2.801 0.44271 3.6777 1.3281 0.88108 0.88542 1.3223 2.1259 1.3223 3.7188 0 1.0938-0.23438 2.0343-0.70312 2.8242-0.46441 0.78993-1.135 1.3858-2.0117 1.7852l1.959 2.1875h-2.3887l-1.5879-1.7715h-0.19531c-1.6016 0-2.8485-0.44271-3.7383-1.3281-0.88976-0.88542-1.334-2.1174-1.334-3.6973 0-1.5755 0.44271-2.811 1.3281-3.7051 0.88976-0.8941 2.1137-1.3418 3.6719-1.3418zm0 1.8164c-0.76389 0-1.3563 0.28342-1.7773 0.84766-0.42101 0.56424-0.63086 1.3585-0.63086 2.3828 0 1.0417 0.20486 1.839 0.61719 2.3945 0.41233 0.55122 1.0098 0.82812 1.791 0.82812 0.76823 0 1.3622-0.28342 1.7832-0.84766s0.63281-1.355 0.63281-2.375c0-1.0243-0.21181-1.8186-0.63281-2.3828s-1.015-0.84766-1.7832-0.84766z" fill="#212121" fill-rule="evenodd" style="paint-order:normal"/>
</svg>
