<?xml version="1.0" encoding="UTF-8"?>
<svg width="24" height="24" version="1.1" viewBox="0 0 24 24" xmlns="http://www.w3.org/2000/svg">
<metadata>
<rdf:RDF xmlns:rdf="http://www.w3.org/1999/02/22-rdf-syntax-ns#" xmlns:rdfs="http://www.w3.org/2000/01/rdf-schema#" xmlns:dc="http://purl.org/dc/elements/1.1/"><rdf:Description dc:creator="Nico Dorn" dc:publisher="Akademie der Wissenschaften zu Göttingen, „Wortgeschichte digital“ („Zentrum für digitale Lexikographie der deutschen Sprache“)" dc:rights="GPL-3.0-only"></rdf:Description></rdf:RDF>
</metadata>
<path d="m7 4c-1.662 0-3 1.338-3 3v10c0 1.662 1.338 3 3 3h10c1.662 0 3-1.338 3-3v-10c0-1.662-1.338-3-3-3h-10zm1 2h3.3574c1.4316 0 2.516 0.2237 3.252 0.67188 0.74606 0.44818 1.1191 1.2394 1.1191 2.3711 0 0.68347-0.14708 1.2599-0.43945 1.7305-0.28229 0.47059-0.69027 0.75658-1.2246 0.85742v0.083985c0.35287 0.089636 0.67442 0.23387 0.9668 0.43555 0.30246 0.19048 0.53954 0.47647 0.71094 0.85742 0.17139 0.38095 0.25781 0.88622 0.25781 1.5137 0 1.0868-0.3584 1.9384-1.0742 2.5547-0.70573 0.61625-1.6688 0.92383-2.8887 0.92383h-4.0371v-12zm2.2832 2.084v2.6719h1.332c0.66541 0 1.123-0.11185 1.375-0.33594 0.26213-0.23529 0.39258-0.58163 0.39258-1.041 0-0.45938-0.15067-0.79051-0.45312-0.99219-0.30246-0.20168-0.78022-0.30273-1.4355-0.30273h-1.2109zm0 4.6895v3.125h1.498c0.68557-1e-6 1.1633-0.14423 1.4355-0.43555 0.27221-0.30252 0.4082-0.70036 0.4082-1.1934 0-0.44818-0.13958-0.80726-0.42188-1.0762-0.27221-0.28011-0.77215-0.41992-1.498-0.41992h-1.4219z" fill="#212121"/>
</svg>
