<?xml version="1.0" encoding="UTF-8"?>
<svg width="24" height="24" version="1.1" xmlns="http://www.w3.org/2000/svg">
<metadata>
<rdf:RDF xmlns:rdf="http://www.w3.org/1999/02/22-rdf-syntax-ns#" xmlns:rdfs="http://www.w3.org/2000/01/rdf-schema#" xmlns:dc="http://purl.org/dc/elements/1.1/"><rdf:Description dc:publisher="Papirus Development Team" dc:rights="GPL-3.0-only"></rdf:Description></rdf:RDF>
</metadata>
<path transform="translate(4,4)" d="M 8,2 C 6.1991,2 4.7401,3.5445 4.5391,5.5391 4.2219,5.6038 4,5.8053 4,6.5 4,6.9819 4.4668,7.9204 5.1719,7.9883 A 3,4.5 0 0 0 8,11 3,4.5 0 0 0 10.828,7.9883 C 11.533,7.9204 12,6.9819 12,6.5 12,5.8053 11.778,5.6038 11.461,5.5391 11.26,3.5445 9.8009,2 8,2 Z M 5.7598,11.01 C 3.1048,11.061 1,11.925 1,13 V 14 C 1,14.554 1.446,15 2,15 H 14 C 14.554,15 15,14.554 15,14 V 13 C 15,11.925 12.895,11.061 10.24,11.01 9.6488,11.618 8.8974,12 8,12 7.1026,12 6.3514,11.618 5.7598,11.01 Z" fill="#212121"/>
</svg>
