<?xml version="1.0" encoding="UTF-8" standalone="no"?>
<svg
   xmlns:dc="http://purl.org/dc/elements/1.1/"
   xmlns:cc="http://creativecommons.org/ns#"
   xmlns:rdf="http://www.w3.org/1999/02/22-rdf-syntax-ns#"
   xmlns:svg="http://www.w3.org/2000/svg"
   xmlns="http://www.w3.org/2000/svg"
   xmlns:sodipodi="http://sodipodi.sourceforge.net/DTD/sodipodi-0.dtd"
   xmlns:inkscape="http://www.inkscape.org/namespaces/inkscape"
   width="24"
   height="24"
   version="1.1"
   viewBox="0 0 24 24"
   id="svg6"
   sodipodi:docname="quick-bedeutungen-wechseln.svg"
   inkscape:version="0.92.3 (2405546, 2018-03-11)">
  <defs
     id="defs10" />
  <sodipodi:namedview
     pagecolor="#ffffff"
     bordercolor="#666666"
     borderopacity="1"
     objecttolerance="10"
     gridtolerance="10"
     guidetolerance="10"
     inkscape:pageopacity="0"
     inkscape:pageshadow="2"
     inkscape:window-width="1600"
     inkscape:window-height="849"
     id="namedview8"
     showgrid="true"
     inkscape:zoom="28"
     inkscape:cx="12"
     inkscape:cy="12"
     inkscape:window-x="0"
     inkscape:window-y="24"
     inkscape:window-maximized="1"
     inkscape:current-layer="svg6">
    <inkscape:grid
       type="xygrid"
       id="grid817" />
  </sodipodi:namedview>
  <metadata
     id="metadata2">
    <rdf:RDF>
      <rdf:Description
         dc:publisher="Papirus Development Team"
         dc:rights="GPL-3.0-only" />
      <cc:Work
         rdf:about="">
        <dc:format>image/svg+xml</dc:format>
        <dc:type
           rdf:resource="http://purl.org/dc/dcmitype/StillImage" />
        <dc:title></dc:title>
      </cc:Work>
    </rdf:RDF>
  </metadata>
  <path
     style="fill:#212121;fill-opacity:1"
     d="M 6 5.0039062 L 6 6.0039062 L 5 6.0039062 L 5 8.0039062 L 6 8.0039062 L 6 11.003906 L 5 11.003906 L 5 13.003906 L 6 13.003906 L 6 16.003906 L 5 16.003906 L 5 18.003906 L 6 18.003906 L 6 19.003906 L 8 19.003906 L 8 18.003906 L 11 18.003906 L 11 19.003906 L 13 19.003906 L 13 19 L 12 19 L 12 18 L 12 17 L 12 16 L 12 13 L 12 12 L 19 12 L 19 11.003906 L 18 11.003906 L 18 8.0039062 L 19 8.0039062 L 19 6.0039062 L 18 6.0039062 L 18 5.0039062 L 16 5.0039062 L 16 6.0039062 L 13 6.0039062 L 13 5.0039062 L 11 5.0039062 L 11 6.0039062 L 8 6.0039062 L 8 5.0039062 L 6 5.0039062 z M 8 8.0039062 L 11 8.0039062 L 11 11.003906 L 8 11.003906 L 8 8.0039062 z M 13 8.0039062 L 16 8.0039062 L 16 11.003906 L 13 11.003906 L 13 8.0039062 z M 13 13 L 13 13.003906 L 15.992188 13.003906 L 15.902344 14.052734 A 3.1720636 3.1424188 0 0 0 14.976562 14.583984 L 14.009766 14.132812 L 13 15.865234 L 13.195312 16 L 13 16 L 13 16.003906 L 13.201172 16.003906 L 13.876953 16.46875 A 3.1720636 3.1424188 0 0 0 13.828125 17 A 3.1720636 3.1424188 0 0 0 13.875 17.53125 L 13.193359 18 L 13 18 L 13 18.003906 L 13.1875 18.003906 L 13 18.132812 L 14.009766 19.865234 L 14.972656 19.416016 A 3.1720636 3.1424188 0 0 0 15.902344 19.943359 L 15.990234 21 L 18.007812 21 L 18.097656 19.947266 A 3.1720636 3.1424188 0 0 0 19.023438 19.416016 L 19.990234 19.867188 L 21 18.134766 L 20.123047 17.53125 A 3.1720636 3.1424188 0 0 0 20.171875 17 A 3.1720636 3.1424188 0 0 0 20.125 16.46875 L 21 15.867188 L 19.990234 14.134766 L 19.027344 14.583984 A 3.1720636 3.1424188 0 0 0 18.097656 14.056641 L 18.009766 13.003906 L 19 13.003906 L 19 13 L 18.009766 13 L 18 13 L 16 13 L 15.992188 13 L 13 13 z M 8 13.003906 L 11 13.003906 L 11 16.003906 L 8 16.003906 L 8 13.003906 z M 17.001953 15.857422 A 1.1534777 1.1426977 0 0 1 18.154297 17 A 1.1534777 1.1426977 0 0 1 17.001953 18.142578 A 1.1534777 1.1426977 0 0 1 15.847656 17 A 1.1534777 1.1426977 0 0 1 17.001953 15.857422 z "
     id="path4" />
</svg>
