<?xml version="1.0" encoding="UTF-8"?>
<svg width="24" height="24" version="1.1" viewBox="0 0 24 24" xmlns="http://www.w3.org/2000/svg">
<metadata>
<rdf:RDF xmlns:rdf="http://www.w3.org/1999/02/22-rdf-syntax-ns#" xmlns:rdfs="http://www.w3.org/2000/01/rdf-schema#" xmlns:dc="http://purl.org/dc/elements/1.1/"><rdf:Description dc:publisher="Papirus Development Team" dc:rights="GPL-3.0-only"></rdf:Description></rdf:RDF>
</metadata>
<path transform="translate(4 4)" d="m10.789 1c-0.9421 0-1.8214 0.43364-2.4121 1.1895l-5.6836 7.2734c-0.52067 0.66622-0.75867 1.5029-0.67188 2.3555 0.086791 0.85245 0.48937 1.6189 1.1328 2.1582l0.36914 0.31055c0.54872 0.45998 1.239 0.71289 1.9453 0.71289 0.10905 0 0.21962-0.005658 0.32812-0.017578 0.81811-0.089327 1.5549-0.50252 2.0723-1.1582 0.0017373-0.002099 0.0024486-0.0028 3.834-4.9063 0.68238-0.87351 0.55224-2.1584-0.29102-2.8652l-0.19336-0.16211c-0.34847-0.29208-0.78782-0.45312-1.2363-0.45312-0.59816 0-1.1563 0.27402-1.5312 0.75391l-3.8281 4.8984c-0.25006 0.32012-0.20167 0.79172 0.10742 1.0508 0.12791 0.10717 0.28881 0.16602 0.45312 0.16602 0.2189 0 0.4229-0.10124 0.56055-0.27734l3.8281-4.8984c0.10011-0.12809 0.24837-0.20117 0.4082-0.20117 0.12146 0 0.23576 0.042038 0.33008 0.12109l0.19336 0.16211c0.10887 0.091238 0.17668 0.22242 0.19141 0.36719 0.014695 0.14477-0.025151 0.28576-0.11328 0.39844l-3.8223 4.8926c-0.31564 0.40371-0.78544 0.63473-1.2891 0.63476-0.37757 0-0.74771-0.13496-1.041-0.38086l-0.36914-0.30859c-0.34398-0.28863-0.55911-0.69848-0.60547-1.1543-0.046399-0.4557 0.081015-0.90358 0.35938-1.2598l5.6836-7.2734c0.31564-0.40394 0.78522-0.63672 1.2891-0.63672 0.3776 0 0.74778 0.13503 1.041 0.38086l0.36914 0.31055c0.71007 0.59515 0.82066 1.6767 0.24609 2.4121-0.12117 0.15511-0.17644 0.35042-0.15625 0.54883 0.020232 0.19837 0.11401 0.37653 0.26367 0.50195 0.12794 0.10721 0.28881 0.16602 0.45312 0.16602 0.2189 0 0.42294-0.099324 0.56055-0.27539 0.51991-0.66536 0.75881-1.502 0.67188-2.3555-0.086863-0.85346-0.48843-1.6198-1.1309-2.1582l-0.36914-0.31055c-0.54905-0.45998-1.2411-0.71289-1.9473-0.71289z" fill="#212121"/>
</svg>
