<?xml version="1.0" encoding="UTF-8"?>
<svg width="24" height="24" version="1.1" viewBox="0 0 24 24" xmlns="http://www.w3.org/2000/svg">
<metadata>
<rdf:RDF xmlns:rdf="http://www.w3.org/1999/02/22-rdf-syntax-ns#" xmlns:rdfs="http://www.w3.org/2000/01/rdf-schema#" xmlns:dc="http://purl.org/dc/elements/1.1/"><rdf:Description dc:publisher="Papirus Development Team" dc:rights="GNU General Public License v3.0"></rdf:Description></rdf:RDF>
</metadata>
<path transform="translate(4 4)" d="m5.9902 1.0195 0.0097656 6h-2.3418l3.3398 4.8613v-1.9863c0-1.0106 0.90116-1.8438 1.875-1.8438h2.7832l0.7168-1.0312h-2.375l-0.0097657-6h-3.998zm2.8906 8.0312c-0.49245 0-0.875 0.35559-0.875 0.84375v5.2187c0 0.48816 0.38255 0.84375 0.875 0.84375h6.25c0.49245 0 0.875-0.35559 0.875-0.84375v-5.2187c0-0.48816-0.38255-0.84375-0.875-0.84375h-6.25zm1.125 0.96875h3v1h-1v3h1v1h-3v-1h1v-3h-1v-1zm-9.0059 4.0117v1.9688h6.2578c-0.15641-0.26492-0.25586-0.56446-0.25586-0.88672v-1.082h-6.002z" fill="#212121"/>
</svg>
