<?xml version="1.0" encoding="UTF-8"?>
<svg width="24" height="24" version="1.1" viewBox="0 0 24 24" xmlns="http://www.w3.org/2000/svg">
<metadata>
<rdf:RDF xmlns:rdf="http://www.w3.org/1999/02/22-rdf-syntax-ns#" xmlns:rdfs="http://www.w3.org/2000/01/rdf-schema#" xmlns:dc="http://purl.org/dc/elements/1.1/"><rdf:Description dc:publisher="Papirus Development Team" dc:rights="GPL-3.0-only"></rdf:Description></rdf:RDF>
</metadata>
<path transform="translate(4 4)" d="m8 1.0039a6.9998 6.9998 0 0 0-7 7 6.9998 6.9998 0 0 0 7 7 6.9998 6.9998 0 0 0 7-7 6.9998 6.9998 0 0 0-7-7zm0 2c0.1726 0 0.3319 0.01405 0.5 0.03125 0.0126 0.0024 0.025863 7e-4 0.039062 0a4.9999 4.9999 0 0 1 0.30664 0.046875c0.1161 0.0224 0.2247 0.049126 0.3418 0.078125 0.25659 0.062998 0.51071 0.1488 0.75 0.25 0.1315 0.055499 0.25 0.1209 0.375 0.1875 0 0.0089998 1e-3 0.02005 0 0.03125 0.028999 0.0128 0.044751 0.066751 0.09375 0.09375 0.018 0.0096998 0.01425 0.024203 0.03125 0.033203 0.027999 0.0157 0.0685 0.032048 0.0625 0.060547-8e-3 0.039699-0.065751 0.031801-0.09375 0.0625 4e-3 0.057699-0.0475 0.054751-0.0625 0.09375 9e-3 0.024699 0.0585 0.032601 0.0625 0.0625-5e-3 0.032299-0.0745 0.029501-0.0625 0.0625 0.053999 0.041899 0.10525 0.0096998 0.15625 0 0.112-0.0143 0.21225-0.0077013 0.28125-0.0625-9e-3 -0.053199 0.09975-0.045751 0.09375-0.09375 0.028999 0.021 0.064751 0.041501 0.09375 0.0625-0.011 0.0105-0.01925 0.02525-0.03125 0.03125-0.021999 0.0097998-0.0435 0.01925-0.0625 0.03125-0.027999 0.018-0.061751 0.041501-0.09375 0.0625-0.022999 0.0158-0.069751 0.09375-0.09375 0.09375-0.028999 0-0.072751-0.03725-0.09375-0.03125-0.029999 0.0096998-0.028501 0.0505-0.0625 0.0625-0.065998 0.024-0.19575-0.036498-0.21875 0.0625 0.027999 0.056999 0.1375 0.031001 0.1875 0.0625 0.030999 0.0202 0.08575 0.091001 0.09375 0.125 8e-3 0.027699 0.012 0.1575 0 0.1875-0.030999 0.079998-0.12675 0.064-0.21875 0.0625h-0.0625c-0.154-0.0097997-0.3055-0.079947-0.375 0.03125 0.0048999 0.084998 0.019 0.14475 0 0.21875-0.014 0.053999-0.09675 0.10975-0.09375 0.15625 0.0011 0.024 0.0566 0.060051 0.0625 0.09375 0.0038999 0.018-0.0079998 0.046 0 0.0625 0.026099 0.048699 0.079301-0.0096997 0.125 0 0.043999 0.0096998 0.09375 0.073848 0.09375 0.12305 0 0.035299-0.009251 0.091101-0.03125 0.125-0.043999 0.065998-0.1245 0.057751-0.1875 0.09375-0.051899 0.029999-0.062751 0.10465-0.09375 0.15625-0.032999 0.056299-0.0755 0.078105-0.0625 0.1582-0.044999 0.088898-0.094502 0.1445-0.1875 0.1875-0.026999 0.012-0.068851 0.01325-0.09375 0.03125-0.0201 0.0143-0.034401 0.061551-0.0625 0.09375-0.034899 0.038999-0.07475 0.063751-0.09375 0.09375-0.014 0.0232-0.01625 0.061451-0.03125 0.09375-0.0219 0.041899-0.065751 0.051751-0.09375 0.09375-0.013 0.0202-0.01725 0.067551-0.03125 0.09375-0.031999 0.057799-0.0685 0.10525-0.0625 0.15625 0.0048999 0.047999 0.0596 0.049551 0.0625 0.09375 0.0027999 0.024-0.03225 0.035501-0.03125 0.0625 0.0011 0.038199 0.02835 0.063751 0.03125 0.09375 0.0069998 0.074198-0.0486 0.10565-0.0625 0.15625-0.0069998 0.0239 0.0059999 0.041047 0 0.060547-0.012 0.036699-0.0615 0.080801-0.0625 0.125-0.0011 0.030699 0.0595 0.049551 0.0625 0.09375 0.0020999 0.029299-0.03725 0.065951-0.03125 0.09375 0.011 0.053999 0.11425 0.11425 0.15625 0.15625 0.056999 0.056999 0.13125 0.096252 0.15625 0.15625 0.021 0.050999 0.023501 0.1494 0.0625 0.1875 0.028999 0.027699 0.088001 0.032501 0.125 0.0625 0.034999 0.026999 0.056851 0.032501 0.09375 0.0625 0.060998 0.047999 0.1531 0.16325 0.25 0.15625 0.050999-0.0096997 0.10025-0.0527 0.15625-0.0625 0.059998-0.0096997 0.1275-0.03575 0.1875-0.03125 0.045999 0.0096998 0.10825 0.03425 0.15625 0.03125 0.049999-0.0096997 0.10025-0.0072506 0.15625-0.03125 0.099997-0.042799 0.26225-0.11445 0.40625-0.09375 0.11 0.0158 0.1105 0.1386 0.1875 0.1875 0.087998 0.0097998 0.14875-0.0172 0.21875 0 0.052999 0.0128 0.12 0.083401 0.125 0.125 5e-3 0.042799-0.0575 0.097901-0.0625 0.125-0.014 0.057799 9e-3 0.11915 0 0.15625-9e-3 0.029199-0.03225 0.064551-0.03125 0.09375 0 0.026299 0.035501 0.090801 0.0625 0.125 0.032999 0.041999 0.085001 0.079801 0.125 0.125 0.072998 0.083998 0.10525 0.17025 0.15625 0.28125 0.013 0.027699-0.012 0.057751 0 0.09375-0.021999 0.168-0.077503 0.28285-0.1875 0.46875-0.050999 0.060199-0.127 0.1125-0.125 0.1875-4e-3 0.18 0.10175 0.29475 0.09375 0.46875-0.018 0.23399 0.018 0.25 0 0.375 0.078998 0.039999 0.022999 0.167 0 0.25-0.033999 0.098998-0.07575 0.12346-0.09375 0.18945 0.052999 0.023 0.1285 0.013 0.1875 0a4.9999 4.9999 0 0 1-0.009766 0.007813c-0.026999 0.028999-0.055985 0.056985-0.083984 0.083984-0.214 0.215-0.45994 0.4178-0.71094 0.5918a4.9999 4.9999 0 0 1-0.068359 0.048828c-0.197 0.131-0.40615 0.24266-0.61914 0.34766a4.9999 4.9999 0 0 1-0.3125 0.13867 4.9999 4.9999 0 0 1-0.0078125 0.003906c-0.1659 0.066999-0.33878 0.11997-0.51367 0.16797a4.9999 4.9999 0 0 1-0.92578 0.1582c-0.1236 6e-3 -0.24645 0.011719-0.37305 0.011719-0.1844 0-0.36613-0.01125-0.54492-0.03125a4.9999 4.9999 0 0 1-0.58008-0.099609c-0.23629-0.062999-0.46371-0.15614-0.6875-0.24414-0.0093998-0.016999-0.03335-0.040547-0.03125-0.060547 0.051999-0.021999 0.1495 0.073998 0.1875 0 0.019-0.035999-0.025099-0.1232 0-0.1582 0.0179-0.023999 0.11925-0.02325 0.15625-0.03125 0.052999-0.01 0.12635-0.01725 0.15625-0.03125 0.032999-0.020999 0.0685-0.093298 0.0625-0.1543-0.0027999-0.029999-0.039501-0.038454-0.0625-0.064453-0.0189-0.021999 0.013-0.039547 0-0.060547-0.023899-0.035999-0.08375-0.044704-0.09375-0.095703 0.071998-0.014 0.17725 0.060249 0.28125 0.03125 0.048999-0.014 0.13325-0.11025 0.15625-0.15625 0.0069998-0.014-0.0079998-0.042547 0-0.060547 0.0089998-0.017999 0.02825-0.0535 0.03125-0.0625 0.0069998-0.026999-0.0059999-0.011297 0-0.029297 0.018-0.051998 0.063751-0.090954 0.09375-0.12695 0.022999-0.027999 0.07265-0.066704 0.09375-0.095703 0.023899-0.030999 0.01525-0.032547 0.03125-0.060547 0.015-0.090997-0.05325-0.17-0.03125-0.25 0.023899-0.089997 0.163-0.1465 0.25-0.1875 0.029899-0.014999 0.068751-0.02225 0.09375-0.03125 0.059998-0.020999 0.1315-0.0435 0.1875-0.0625 0.093998-0.033999 0.11025-0.10055 0.15625-0.18555 0.022-0.039999 0.0584-0.096954 0.0625-0.12695 0.0037999-0.025999-0.0049999-0.031501 0-0.0625 0.0048999-0.028999-0.0079998-0.059751 0-0.09375 0.011-0.041999 0.03125-0.1395 0.03125-0.1875 0-0.039999-0.03035-0.057751-0.03125-0.09375-0.0069998-0.13 0.045751-0.116 0.09375-0.1875 0.023999-0.035199 0.0456-0.1 0.0625-0.125 0.080998-0.12 0.22865-0.16175 0.21875-0.34375-0.0038999-0.059998-0.049751-0.19975-0.09375-0.21875-0.024999-0.0112-0.056751-0.01785-0.09375-0.03125-0.1179-0.044299-0.22075-0.1775-0.34375-0.1875h-0.0625c-0.047999 0-0.10235-0.02375-0.15625-0.03125-0.033999-0.0097997-0.1051 0.0097998-0.125 0-0.031099-0.015-0.037501-0.07665-0.0625-0.09375-0.02-0.0142-0.062751-0.021903-0.09375-0.033203-0.048999-0.018-0.068001-0.056847-0.125-0.060547-0.018 0-0.0425 0.0096998-0.0625 0-0.030999-0.0096997-0.064751-0.015204-0.09375-0.033203-0.035899-0.021799-0.07875-0.029848-0.09375-0.060547 0.032999-0.1079-0.07185-0.1245-0.09375-0.1875-0.0101-0.029199 0.0099997-0.099001 0-0.125-0.013-0.036699-0.052751-0.063051-0.09375-0.09375-0.071998-0.056198-0.11575-0.08095-0.21875-0.09375-0.045899-0.0097997-0.10125 0.0096998-0.15625 0-0.057998-0.0097997-0.1435-0.043551-0.1875-0.09375-0.041999-0.048699-0.056851-0.1019-0.09375-0.125-0.034999-0.021699-0.069751-0.04-0.09375-0.0625-0.011-0.0096997-0.02125-0.0079505-0.03125-0.03125-0.018-0.036699-0.05325-0.048751-0.03125-0.09375-0.039999-0.020199-0.019501 0.03795-0.0625 0.03125-0.038999-0.054799-0.068352-0.10975-0.15625-0.09375-0.039999 0.0097998-0.078101 0.09265-0.125 0.09375-0.038999 0-0.074101-0.08575-0.125-0.09375-0.038999-0.0097997-0.098101 0.03585-0.125 0.03125-0.043099-0.0096997-0.054751-0.037101-0.09375-0.0625-0.028999-0.0188-0.07775-0.0639-0.09375-0.0625-0.049899 0-0.087252 0.098999-0.15625 0.0625-0.033999-0.042799 0.071349-0.054051 0.03125-0.09375-0.029899-0.029199-0.038501 0.01705-0.0625 0.03125-0.027999 0.018-0.062751 0.01995-0.09375 0.03125-0.068998 0.026199-0.1335 0.034001-0.1875 0.0625-0.049999 0.026199-0.064851 0.042751-0.09375 0.09375-0.022999 0.041899-0.058751 0.123-0.09375 0.125-0.041999 0-0.055751-0.0459-0.09375-0.0625-0.1149-0.050199-0.18625 0.02895-0.28125 0.03125-0.087998 0-0.22265-0.13575-0.21875-0.21875 0.0027999-0.050999 0.02525-0.1245 0.03125-0.1875 0.0048999-0.050199 0.0616-0.11065 0.0625-0.15625 0.0011-0.062198-0.11635-0.08665-0.15625-0.09375-0.093998-0.0172-0.2055 0.041999-0.3125 0-0.02-0.033699 0.01925-0.060051 0.03125-0.09375 0.0069998-0.018-0.0069998-0.0415 0-0.0625 0.012-0.032199 0.07885-0.059951 0.09375-0.09375 0.0111-0.026199-0.011-0.060751 0-0.09375 0.013-0.035999 0.0594-0.067551 0.0625-0.09375 0.0037999-0.033799-0.035501-0.07205-0.0625-0.09375-0.082898 0.0097998-0.1396 0.0092038-0.1875 0.033203-0.108 0.048799-0.078503 0.18465-0.1875 0.21875-0.036999 0.012-0.083001 0.02375-0.125 0.03125-0.0177 0.0093997-0.040447 6e-4 -0.060547 0a4.9999 4.9999 0 0 1 0.011719-0.058594c0.0073998-0.0112 0.014778-0.022556 0.017578-0.035156 0.071298-0.32499 0.1814-0.63961 0.3125-0.9375h0.03125c0.037999 0.0096997 0.060751 0.0595 0.09375 0.0625 0.091998 0.0096997 0.1115-0.084801 0.1875-0.125 0.077998 0.0112 0.1165-0.0097998 0.1875 0 0.047999 0.0096997 0.11825 0.056747 0.15625 0.060547 0.031999 0 0.032501-0.03505 0.0625-0.03125 0.029999 0.0096998 0.08875 0.057751 0.09375 0.09375 0.0049999 0.044999-0.04435 0.10665-0.03125 0.15625 0.046999 0.047899 0.15175 0.066051 0.21875 0.09375 0.043999-0.036699 0.0069998-0.10425 0-0.15625-0.0011-0.023199 0.0027999-0.07275 0-0.09375-0.0048999-0.035999-0.03125-0.063051-0.03125-0.09375 0-0.1431 0.12275-0.1941 0.21875-0.25 0.040999-0.023999 0.089001-0.07575 0.125-0.09375 0.050999-0.024699 0.083001-0.0073505 0.125-0.03125 0.075998-0.042799 0.1285-0.10755 0.1875-0.15625 0.026999-0.065198-0.0027999-0.15485 0-0.21875 0.026999-0.0173 0.064851 0 0.09375 0 0.045999-0.0097997 0.067751-0.067551 0.09375-0.09375 0.015-0.015 0.0445-0.01625 0.0625-0.03125 0.045999-0.035999 0.053751-0.07775 0.09375-0.09375 0.0141-0.0097997 0.040401-0.02385 0.0625-0.03125 0.029999-0.0097997 0.077001-0.01325 0.125-0.03125 0.030999-0.0113 0.1129-0.01765 0.125-0.03125 0.015-0.015-0.0038999-0.07055 0-0.09375 0.023899-0.1129 0.18025-0.11815 0.28125-0.15625 0.069998-0.026199 0.14075-0.10765 0.21875-0.09375-0.0151 0.053999-0.0755 0.060002-0.0625 0.125 0.017 0.090998 0.12425-0.019703 0.15625-0.033203 0.060998-0.026299 0.17-0.063751 0.25-0.09375 0.069998-0.024699 0.191-0.042349 0.125-0.12305-0.054999-0.0096997-0.077001 0.041047-0.125 0.060547-0.032999 0.0097998-0.034501-0.02825-0.0625-0.03125-0.026999 0-0.035501 0.03575-0.0625 0.03125-0.026999-0.0096997-0.0585-0.060751-0.0625-0.09375-0.011-0.083998 0.059751-0.094352 0.09375-0.15625-0.022999-0.075998-0.1235-0.030548-0.1875-0.060547 0.0069998-0.044999 0.040751-0.08375 0.09375-0.09375 0.042999-0.0097997 0.1615 0.0080506 0.1875 0.03125 0.015 0.0128-0.022899 0.041501 0 0.0625 0.025999 0.0232 0.059851 0.0096998 0.09375 0 0.012-0.056998-0.0725-0.025801-0.0625-0.0625 0.067898-0.044199 0.19825-0.02005 0.28125-0.03125 0.047999-0.0097997 0.11335-0.04 0.15625-0.0625 0.039999-0.023199 0.051751-0.068749 0.09375-0.03125 0.012 0.041199-0.0083506 0.071951-0.03125 0.09375-0.076998 0.068198-0.15875 0.13985-0.21875 0.21875 0.036999 0.035999 0.094352 0.02365 0.15625 0.03125 0.023999 0.0096998 0.068751-0.0075998 0.09375 0 0.029999 0.0096998 0.069651-0.0097997 0.09375 0 0.041999 0.0096998 0.051751 0.09375 0.09375 0.09375 0.067998 0 0.038999-0.079801 0-0.125 0.012-0.047199 0.04825-0.091801 0.03125-0.125-0.031099-0.062198-0.15025 0.018498-0.15625-0.0625-0.0037999-0.050199 0.0445-0.055451 0.0625-0.09375-0.0079998-0.095898 0.0725-0.1006 0.0625-0.1875-0.0048999-0.035999-0.037501-0.028701-0.0625-0.0625-0.013-0.018-0.01635-0.07985-0.03125-0.09375-0.051999-0.044199-0.15025-0.009852-0.15625-0.09375-0.0027999-0.050299 0.0069998-0.10265 0-0.15625-0.0069998-0.050999-0.049851-0.20885-0.09375-0.21875-0.055999-0.012-0.089252 0.093701-0.15625 0.125-0.035999 0.0172-0.11925 0.03725-0.15625 0.03125-0.023899-0.0097997-0.0595-0.016001-0.0625-0.0625-0.0039999-0.042699 0.0469-0.061551 0.0625-0.09375 0.0039999-0.0082997-0.0019-0.01995 0-0.03125 0.024699-0.0068998 0.049519-0.013984 0.074219-0.021484a4.9999 4.9999 0 0 1 0.32422-0.072266c0.0133 0.0014 0.026463 0.0031 0.039062 0 0.1335-0.024799 0.26915-0.0489 0.40625-0.0625 0.1662-0.0172 0.3289-0.03125 0.5-0.03125zm-2.0312 0.46875c-0.031899 0.1825-0.20276 0.2553-0.40625 0.25-0.045999 0.044199-0.0062506 0.1266-0.03125 0.1875-0.021 0.050999-0.10525 0.09775-0.15625 0.09375-0.036999 0-0.09375-0.058451-0.09375-0.09375 0-0.042699 0.068249-0.044251 0.03125-0.09375 0.0017-0.0096997 0.02085-0.02065 0.03125-0.03125 0.0202-0.0127 0.0422-0.01845 0.0625-0.03125 0.1813-0.1115 0.3669-0.19325 0.5625-0.28125zm4.1875 0.1875c-0.018 0.0097998-0.01525 0.02075-0.03125 0.03125-0.037999 0.0232-0.064751 0.052-0.09375 0.0625-0.040699 0.015-0.08775 0.025801-0.09375 0.0625-0.0048999 0.030699 0.03225 0.034001 0.03125 0.0625-0.0151 0.036699-0.02325 0.048751-0.03125 0.09375 0.050999 0.082898 0.15575-0.01775 0.21875-0.03125 0.027999-0.0096997 0.0475-0.0092037 0.0625-0.033203 0.017-0.026999 0.01825-0.055451 0.03125-0.09375 0.014-0.041999 0.0685-0.057051 0.0625-0.09375-3e-3 -0.036799-0.094252-0.065747-0.15625-0.060547zm-5.4688 0.625c0.047399 0.038299 0.11405 0.12055 0.03125 0.15625-0.0101 0.0096998-0.13225 0.03495-0.15625 0.03125-0.0096998 0-0.02275-0.02375-0.03125-0.03125 0.051699-0.050199 0.10245-0.10815 0.15625-0.15625zm0.1875 0.1875c0.023999 0 0.034501 0.0611 0.0625 0.0625 0.026999 0 0.0465-0.03505 0.0625-0.03125 0.041999 0.0112 0.071349 0.093801 0.03125 0.125-0.032999 0.0097998-0.038601-0.03505-0.0625-0.03125-0.067998 0.012-0.10525 0.16025-0.15625 0.15625-0.047999-0.0097997-0.080249-0.12125-0.03125-0.15625 0.0012-0.029999-2e-3 -0.031701 0-0.0625 0.0151-0.018 0.053751-0.0655 0.09375-0.0625zm-0.25 0.03125c0.014 0 0.02625-0.0097997 0.03125 0-0.0068998 0.053199-0.021601 0.068951-0.0625 0.09375-0.070998 0.042699-0.13325 0.096102-0.15625 0.1875-0.0069998 0.026999-0.091001 0.10045-0.125 0.09375-0.078998-0.0172 0.0445-0.1646 0.0625-0.1875 0.02-0.024699 0.039501-0.034001 0.0625-0.0625 0.022999-0.027699 0.0406-0.07775 0.0625-0.09375 0.023999-0.0172 0.083001-0.03275 0.125-0.03125zm6.7812 0.15625c0.078998-0.0096997 0.12125 0.077401 0.15625 0.125 0.029999 0.038999 0.10725 0.097801 0.15625 0.125 0.027999 0.015 0.063751 0.0489 0.09375 0.0625 0.064998 0.029199 0.1845 0.1236 0.1875 0.1875 1e-3 0.032299-0.03625 0.063751-0.03125 0.09375 0.048999 0.0097998 0.09375-0.075801 0.09375-0.125 0.091998 0.13 0.171 0.26775 0.25 0.40625 0.037999 0.065298 0.090001 0.12 0.125 0.1875-0.044999 0.0127-0.0555 0.019801-0.0625 0.0625-0.01 0.056299 0.021498 0.14635-0.0625 0.15625-0.051999 0.0096998-0.1145-0.046-0.1875-0.0625-0.029999-0.0097997-0.069751 0.0097998-0.09375 0-0.054999-0.018-0.046751-0.091701-0.09375-0.125-0.027999-0.0188-0.11325-0.058-0.15625-0.0625-0.026999 0-0.034501 0.0096998-0.0625 0-0.033999-0.0096997-0.097001 0.0143-0.125 0-0.026999-0.0173-0.08675-0.07055-0.09375-0.09375-0.011-0.036799 0.09175-0.062251 0.09375-0.09375 2e-3 -0.023999-0.02525-0.056951-0.03125-0.09375-3e-3 -0.021699 5e-3 -0.0475 0-0.0625-6e-3 -0.026299-0.052751-0.02975-0.09375-0.03125h-0.09375c-0.043999 0-0.1335-0.0074998-0.1875 0h-0.09375c-0.086998 0.0096998-0.15075-0.0096997-0.21875 0-0.048999 0-0.1425 0.041501-0.1875 0.0625-0.022999 0.0112-0.032501 0.01625-0.0625 0.03125-0.014 0.0097998-0.0435 0.02295-0.0625 0.03125-0.026999 0.0127-0.066751 0.055-0.09375 0.0625-0.038999 0.0097998-0.085252-0.0097997-0.15625 0-0.049999 0-0.124-0.032952-0.125-0.09375-2e-3 -0.092898 0.162-0.0461 0.25-0.0625 0.031999-0.0097997 0.053751-0.0385 0.09375-0.0625 0.019-0.0112 0.01425-0.01925 0.03125-0.03125 0.029999-0.020999 0.08875-0.069751 0.09375-0.09375 4e-3 -0.021699-3e-3 -0.0461 0-0.0625 4e-3 -0.020999 0.035501-0.034701 0.0625-0.0625 0.041999-0.041899 0.073001-0.097801 0.125-0.125 0.034999-0.018 0.07775-0.032048 0.09375-0.060547 3e-3 -0.032199-2e-3 -0.032501 0-0.0625 0.020999-0.0202 0.0445-0.02675 0.0625-0.03125 0.053999-0.012 0.093252 0 0.15625 0 0.026999 0 0.064751 0.0127 0.09375 0 0.023999-0.0158 0.038501-0.0505 0.0625-0.0625 0.026999-0.0143 0.061751-0.02895 0.09375-0.03125v-0.0019532zm0.5625 0.59375h-0.125c-0.043999 0-0.099001-0.023199-0.125 0 0.036999 0.059998 0.1045 0.07875 0.1875 0.09375 0.029999-0.021799 0.0485-0.055551 0.0625-0.09375zm-6.8438-0.5625h0.09375c0.024999 0 0.0526-0.0096997 0.0625 0-0.016 0.065998-0.16675 0.05515-0.21875 0.03125 0.0027999-0.024799 0.030501-0.02675 0.0625-0.03125zm-0.21875 0.125c-0.043599 0.031499-0.086952 0.072051-0.15625 0.09375-0.037999 0.012-0.08665 0.010749-0.09375-0.03125-0.0079998-0.051699 0.059751-0.02605 0.09375-0.03125 0.043999-0.0097997 0.10535-0.02895 0.15625-0.03125zm6.5 0c-0.032999 0.0113-0.048999 0.08375 0 0.09375 0.022999-0.0142 0.03725-0.051051 0.03125-0.09375-0.013-0.0143-0.02125-0.0096997-0.03125 0zm-0.0625 0.15625c1e-3 0.056199 0.011 0.10765 0 0.15625 0.031999 0.062198 0.109 0.010649 0.125-0.03125 0.019-0.1041-0.014501-0.138-0.0625-0.125-0.016 0.0096998-0.0455-0.0128-0.0625 0zm-8.2812 2.3438c0.056399 0.050999 0.088752 0.12275 0.15625 0.15625 0.024999 0.0127 0.061751 0.02305 0.09375 0.03125 0.025999 0.0097998 0.037501-0.0081997 0.0625 0 0.052999 0.018 0.11435 0.0438 0.15625 0.0625 0.063998 0.027699 0.1324 0.12415 0.1875 0.15625 0.0026999 0.032199-0.0101 0.069751 0 0.09375 0.025999 0.035199 0.051751 0.069851 0.09375 0.09375 0.050999 0.027799 0.077001 0.071251 0.125 0.09375 0.017 0.0097998 0.036501-0.0097997 0.0625 0 0.065998 0.0202 0.099351 0.11055 0.15625 0.09375 0.037099-0.0113 0.02525-0.057751 0.03125-0.09375 0.024999-0.026999 0.054751-0.0625 0.09375-0.0625 0.061998 0 0.070751 0.095652 0.09375 0.15625 0.013 0.033699 0.0535 0.057751 0.0625 0.09375 0.015 0.062198 0.013 0.24425 0 0.28125-0.016 0.045699-0.087001 0.043551-0.125 0.09375-0.018 0.023999-0.01725 0.07675-0.03125 0.09375-0.023899 0.029299-0.0445 0.034701-0.0625 0.0625-0.0101 0.015-0.02225 0.041601-0.03125 0.0625-0.029999 0.063798-0.087499 0.1104-0.0625 0.1875 0.0099997 0.030699 0.0625 0.057051 0.0625 0.09375 0 0.044199-0.08675 0.076901-0.09375 0.125-0.0049999 0.035199 0.02035 0.078301 0.03125 0.125 0.0079998 0.035199 0.07275 0.070551 0.09375 0.09375 0.034899 0.038999 0.061751 0.10675 0.09375 0.15625 0.062998 0.096998 0.094252 0.2175 0.15625 0.3125 0.032999 0.048699 0.103 0.073501 0.125 0.125 0.011 0.026-0.0101 0.069751 0 0.09375 0.035899 0.080998 0.20025 0.17975 0.28125 0.21875 0.037999 0.019 0.090001 0.011251 0.125 0.03125 0.052999 0.029999 0.1605 0.10925 0.1875 0.15625 0.023999 0.041999 0.01925 0.15175 0.03125 0.21875 0.015 0.087998-0.0038999 0.155 0 0.25 0.0026999 0.050999 0.03125 0.073002 0.03125 0.125 0 0.018 0.0011 0.076704 0 0.095703-0.0011 0.061999 0.0049999 0.12255 0 0.18555-0.0027999 0.033999-0.0021999 0.064751 0 0.09375 0.0027999 0.030999 0.02935 0.035501 0.03125 0.0625 0.0021999 0.029-0.03425 0.070751-0.03125 0.09375 0.0069998 0.062999 0.0505 0.098252 0.0625 0.15625 0.0099997 0.045999 0.03715 0.16375 0.03125 0.21875-0.0038999 0.029-0.02725 0.060751-0.03125 0.09375-0.0027999 0.026 0.0037999 0.038501 0 0.0625-0.0022999 0.02 0.0017 0.036735 0 0.052735a4.9999 4.9999 0 0 1-0.11328-0.066407c-0.25869-0.177-0.51007-0.39033-0.73047-0.61133-0.030599-0.030999-0.063951-0.060797-0.09375-0.091797-0.1806-0.191-0.3509-0.40996-0.5-0.62695-0.0135-0.018999-0.01805-0.0425-0.03125-0.0625-0.1731-0.25899-0.3146-0.52201-0.4375-0.8125-0.0087998-0.020999-0.02265-0.0415-0.03125-0.0625-0.1054-0.25899-0.1889-0.53401-0.25-0.8125-0.0115-0.052499-0.02145-0.10305-0.03125-0.15625-0.024799-0.1334-0.0485-0.26925-0.0625-0.40625-0.017-0.1681-0.03125-0.3274-0.03125-0.5 0-0.23769 0.030401-0.45871 0.0625-0.6875zm1.9375 0.53125c0.047999-0.021799 0.038999 0.0558 0 0.0625-0.036999 0.0097998-0.035999-0.0445 0-0.0625z" fill="#212121"/>
</svg>
