<?xml version="1.0" encoding="UTF-8"?>
<svg width="24" height="24" version="1.1" viewBox="0 0 24 24" xmlns="http://www.w3.org/2000/svg">
<metadata>
<rdf:RDF xmlns:rdf="http://www.w3.org/1999/02/22-rdf-syntax-ns#" xmlns:rdfs="http://www.w3.org/2000/01/rdf-schema#" xmlns:dc="http://purl.org/dc/elements/1.1/"><rdf:Description dc:publisher="Papirus Development Team" dc:rights="GPL-3.0-only"></rdf:Description></rdf:RDF>
</metadata>
<path transform="translate(4 4)" d="m4.498 2.0078c-1.3798 0.001073-2.498 1.12-2.498 2.5 0 1.3807 1.1193 2.5 2.5 2.5 0.44608 0 0.85613-0.13902 1.2188-0.34375l1.9688 1.8438-1.9688 1.8437c-0.36-0.205-0.7707-0.34375-1.2207-0.34375-1.3807 0-2.5 1.1193-2.5 2.5 0 1.3807 1.1193 2.5 2.5 2.5s2.5-1.1193 2.5-2.5c0-0.22916-0.03605-0.44541-0.09375-0.65625l2.125-2.0625 4.4688 4.2187h1.5v-1l-8.0938-7.8437c0.0578-0.21084 0.09375-0.42709 0.09375-0.65625 0-1.38-1.1183-2.4989-2.498-2.5h-0.0019531zm9.002 1-3.9375 3.7188 1.3125 1.2812 4.125-4v-1h-1.5zm-9 0.5c0.55228 0 1 0.44772 1 1s-0.44772 1-1 1-1-0.44772-1-1 0.44772-1 1-1zm0 8c0.55228 0 1 0.44772 1 1 0 0.55228-0.44772 1-1 1s-1-0.44772-1-1c0-0.55228 0.44772-1 1-1z" fill="#212121"/>
</svg>
