<?xml version="1.0" encoding="UTF-8"?>
<svg width="24" height="24" version="1.1" xmlns="http://www.w3.org/2000/svg">
<metadata>
<rdf:RDF xmlns:rdf="http://www.w3.org/1999/02/22-rdf-syntax-ns#" xmlns:rdfs="http://www.w3.org/2000/01/rdf-schema#" xmlns:dc="http://purl.org/dc/elements/1.1/"><rdf:Description dc:creator="Nico Dorn" dc:publisher="Akademie der Wissenschaften zu Göttingen, „Wortgeschichte digital“ („Zentrum für digitale Lexikographie der deutschen Sprache“)" dc:rights="GPL-3.0-only"></rdf:Description></rdf:RDF>
</metadata>
<path d="m10.5 5a5.5 5.5 0 0 0-5.5 5.5 5.5 5.5 0 0 0 5.5 5.5 5.5 5.5 0 0 0 3.1172-0.96875l3.6621 3.6621a1 1 0 0 0 0.7207 0.30664 1 1 0 0 0 1-1 1 1 0 0 0-0.30273-0.7168l-3.6699-3.6699a5.5 5.5 0 0 0 0.97266-3.1133 5.5 5.5 0 0 0-5.5-5.5zm0 2a3.5 3.5 0 0 1 3.5 3.5 3.5 3.5 0 0 1-3.5 3.5 3.5 3.5 0 0 1-3.5-3.5 3.5 3.5 0 0 1 3.5-3.5zm-7.5 10v4h2 7.4316 8.5684v-4h-1.3379c0.44598 0.76574 0.34692 1.7566-0.31055 2.4141-0.78347 0.78348-2.0447 0.78348-2.8281 0l-2.1211-2.1211c-0.091249-0.091249-0.17024-0.19026-0.24024-0.29297h-1.7305-7.4316-2zm2 1h7.4316v2h-7.4316v-2z" fill="#212121"/>
</svg>
