<?xml version="1.0" encoding="UTF-8"?>
<svg width="24" height="24" version="1.1" viewBox="0 0 24 24" xmlns="http://www.w3.org/2000/svg">
<metadata>
<rdf:RDF xmlns:rdf="http://www.w3.org/1999/02/22-rdf-syntax-ns#" xmlns:rdfs="http://www.w3.org/2000/01/rdf-schema#" xmlns:dc="http://purl.org/dc/elements/1.1/"><rdf:Description dc:publisher="Papirus Development Team" dc:rights="GPL-3.0-only"></rdf:Description></rdf:RDF>
</metadata>
<path transform="translate(4 4)" d="m7 1-5 14h2.5l1.0625-3h4.4375v-4h1.6406l-2.6406-7h-2zm1 4 1.75 5h-3.5l1.75-5zm3 4v6h3c1.108 0 2-0.892 2-2 0-0.811-0.48088-1.5024-1.1719-1.8164 0.106-0.206 0.17188-0.43559 0.17188-0.68359 0-0.831-0.669-1.5-1.5-1.5h-2.5zm1 1h1.5c0.277 0 0.5 0.223 0.5 0.5s-0.223 0.5-0.5 0.5h-1.5v-1zm0 2h2c0.554 0 1 0.446 1 1s-0.446 1-1 1h-2v-2z" fill="#212121"/>
</svg>
