<?xml version="1.0" encoding="UTF-8"?>
<svg width="24" height="24" version="1.1" viewBox="0 0 24 24" xmlns="http://www.w3.org/2000/svg">
<metadata>
<rdf:RDF xmlns:rdf="http://www.w3.org/1999/02/22-rdf-syntax-ns#" xmlns:rdfs="http://www.w3.org/2000/01/rdf-schema#" xmlns:dc="http://purl.org/dc/elements/1.1/"><rdf:Description dc:creator="Nico Dorn" dc:publisher="Akademie der Wissenschaften zu Göttingen, „Wortgeschichte digital“ („Zentrum für digitale Lexikographie der deutschen Sprache“)" dc:rights="GPL-3.0-only"></rdf:Description></rdf:RDF>
</metadata>
<g fill="#212121">
<path d="M 4.2539,7 0.2793,11.6445 0,12 0.2793,12.3555 4.2539,17 6,16.291 2.3359,12 6,7.709 Z"/>
<path d="M 19.746,7 18,7.709 21.664,12 18,16.291 19.746,17 23.721,12.3555 24,12 23.721,11.6445 Z"/>
<path d="m10.483 17.174q-1.3346 0-1.9401-1.2695l-0.1888 1.0807h-1.7122v-10.13h1.901v3.8737q0.6901-1.2109 1.9401-1.2109 1.224 0 1.9206 1.0156 0.70312 1.0091 0.70312 2.806t-0.69662 2.819q-0.69661 1.0156-1.9271 1.0156zm-0.60547-1.5625q0.59896 0 0.95703-0.61849 0.36458-0.625 0.36458-1.6732 0-1.0286-0.35156-1.6211-0.34505-0.59245-0.95052-0.59245-0.61849 0-0.98958 0.61849-0.36458 0.61198-0.36458 1.6341t0.36458 1.6406q0.36458 0.61198 0.97005 0.61198z"/>
<path d="m13.718 9.6934h1.7188l0.1888 1.1328q0.27995-0.61849 0.85286-0.96354 0.57943-0.34505 1.3542-0.34505 0.80078 0 1.4844 0.37109v1.8164q-0.63151-0.57292-1.6536-0.57292-0.82682 0-1.3411 0.3776t-0.63802 1.0872q-0.02604 0.16276-0.04557 0.41016-0.01302 0.24088-0.01302 0.61849v3.3594h-1.9076z"/>
</g>
</svg>
