<?xml version="1.0" encoding="UTF-8"?>
<svg width="24" height="24" version="1.1" viewBox="0 0 24 24" xmlns="http://www.w3.org/2000/svg">
<metadata>
<rdf:RDF xmlns:rdf="http://www.w3.org/1999/02/22-rdf-syntax-ns#" xmlns:rdfs="http://www.w3.org/2000/01/rdf-schema#" xmlns:dc="http://purl.org/dc/elements/1.1/"><rdf:Description dc:creator="Nico Dorn" dc:publisher="Akademie der Wissenschaften zu Göttingen, „Wortgeschichte digital“ („Zentrum für digitale Lexikographie der deutschen Sprache“)" dc:rights="GPL-3.0-only"></rdf:Description></rdf:RDF>
</metadata>
<path d="m7.8281 8-2.8281 9h1.1426l0.97461-2.5703h2.7227l0.875 2.5703h1.1426l-2.5918-9h-1.4375zm4.8867 0v9h4a2.2857 2.5714 0 0 0 2.2852-2.5703 2.2857 2.5714 0 0 0-1.5332-2.4238 2.2857 2.5714 0 0 0 0.39062-1.4355 2.2857 2.5714 0 0 0-2.2852-2.5703h-2.8574zm-8.7148 1-3 3 3 3v-6zm16 0v6l3-3-3-3zm-6.1426 0.28516h1.7148a1.1429 1.2858 0 0 1 1.1426 1.2852 1.1429 1.2858 0 0 1-1.1426 1.2852h-1.7148v-2.5703zm-5.3105 0.10938 1.0723 3.75h-2.2559l1.1836-3.75zm5.3105 3.75h2.8574a1.1429 1.2858 0 0 1 1.1426 1.2852 1.1429 1.2858 0 0 1-1.1426 1.2852h-2.8574v-2.5703z" fill="#212121"/>
</svg>
