<?xml version="1.0" encoding="UTF-8"?>
<svg width="24" height="24" version="1.1" viewBox="0 0 24 24" xmlns="http://www.w3.org/2000/svg">
<metadata>
<rdf:RDF xmlns:rdf="http://www.w3.org/1999/02/22-rdf-syntax-ns#" xmlns:rdfs="http://www.w3.org/2000/01/rdf-schema#" xmlns:dc="http://purl.org/dc/elements/1.1/"><rdf:Description dc:publisher="Papirus Development Team" dc:rights="GPL-3.0-only"></rdf:Description></rdf:RDF>
</metadata>
<path transform="translate(4 4)" d="m2 2a1.0001 1.0001 0 0 0-1 1v1a1.0001 1.0001 0 0 0 1 1h3v6h-3a1.0001 1.0001 0 0 0-1 1v1a1.0001 1.0001 0 0 0 1 1h5a1.0001 1.0001 0 0 0 1-1v-3h2v2l5-4-5-4v2h-2v-3a1.0001 1.0001 0 0 0-1-1h-5z" fill="#212121"/>
</svg>
