<?xml version="1.0" encoding="UTF-8"?>
<svg width="20" height="20" version="1.1" viewBox="0 0 20 20" xmlns="http://www.w3.org/2000/svg">
<metadata>
<rdf:RDF xmlns:rdf="http://www.w3.org/1999/02/22-rdf-syntax-ns#" xmlns:rdfs="http://www.w3.org/2000/01/rdf-schema#" xmlns:dc="http://purl.org/dc/elements/1.1/"><rdf:Description dc:publisher="Papirus Development Team" dc:rights="GPL-3.0-only"></rdf:Description></rdf:RDF>
</metadata>
<path d="m14.501 4a1.4993 1.4982 0 0 0-1.06 0.43892l-3.4378 3.4353-3.4232-3.4207a1.4993 1.4982 0 0 0-0.014642-0.014631 1.4993 1.4982 0 0 0-1.0513-0.43307l-0.014641 0.020483a1.4993 1.4982 0 0 0-1.4993 1.4982 1.4993 1.4982 0 0 0 0.43924 1.0592l3.4378 3.4353-3.4378 3.4353a1.4993 1.4982 0 0 0-0.43338 1.0475 1.4993 1.4982 0 0 0 1.4993 1.4982 1.4993 1.4982 0 0 0 1.06-0.43892l3.4378-3.4353 3.4232 3.4207a1.4993 1.4982 0 0 0 1.0747 0.45355 1.4993 1.4982 0 0 0 1.4993-1.4982 1.4993 1.4982 0 0 0-0.43924-1.0592l-3.4496-3.444 3.4232-3.4207a1.4993 1.4982 0 0 0 0.46559-1.0797 1.4993 1.4982 0 0 0-1.4993-1.4982z" fill="#d00"/>
</svg>
