<?xml version="1.0" encoding="UTF-8"?>
<svg width="48" height="48" version="1.1" viewBox="0 0 48 48" xmlns="http://www.w3.org/2000/svg">
<metadata>
<rdf:RDF xmlns:rdf="http://www.w3.org/1999/02/22-rdf-syntax-ns#" xmlns:rdfs="http://www.w3.org/2000/01/rdf-schema#" xmlns:dc="http://purl.org/dc/elements/1.1/"><rdf:Description dc:publisher="Papirus Development Team" dc:rights="GPL-3.0-only"></rdf:Description></rdf:RDF>
</metadata>
<path d="m33.001 12a2.9986 2.9964 0 0 0-2.12 0.87785l-6.8755 6.8705-6.8463-6.8413a2.9986 2.9964 0 0 0-0.02928-0.02926 2.9986 2.9964 0 0 0-2.1026-0.86614l-0.02928 0.04097a2.9986 2.9964 0 0 0-2.9986 2.9964 2.9986 2.9964 0 0 0 0.87849 2.1184l6.8755 6.8705-6.8755 6.8705a2.9986 2.9964 0 0 0-0.86677 2.095 2.9986 2.9964 0 0 0 2.9986 2.9964 2.9986 2.9964 0 0 0 2.12-0.87785l6.8755-6.8705 6.8463 6.8413a2.9986 2.9964 0 0 0 2.1494 0.90711 2.9986 2.9964 0 0 0 2.9986-2.9964 2.9986 2.9964 0 0 0-0.87849-2.1184l-6.8991-6.8881 6.8463-6.8413a2.9986 2.9964 0 0 0 0.93119-2.1594 2.9986 2.9964 0 0 0-2.9986-2.9964z" fill="#212121"/>
</svg>
